<svg id="Layer_2" data-name="Layer 2" xmlns="http://www.w3.org/2000/svg" viewBox="0 0 200 766.63"><defs><style>.cls-1{fill:#0096d7;}.cls-2{fill:#fff;}</style></defs><title>Flow Diagram vertical</title><rect class="cls-1" width="200" height="766.63"/><path class="cls-2" d="M125.74,234.66H124v-3.3a4,4,0,0,0-4-4h-13.3a4,4,0,0,0-4,4v3.3H74.26A6.27,6.27,0,0,0,68,240.92V270a6.26,6.26,0,0,0,6.26,6.26H85.89a17.84,17.84,0,0,0,28.23,0h11.63A6.26,6.26,0,0,0,132,270V240.92A6.27,6.27,0,0,0,125.74,234.66Zm-19-3.3H120v3.3h-13.3v-3.3ZM100,279.2a13.86,13.86,0,1,1,13.86-13.86A13.87,13.87,0,0,1,100,279.2Zm25.74-6.93h-9.27a17.87,17.87,0,1,0-32.95,0H74.26A2.25,2.25,0,0,1,72,270V244.52h41.33a1.34,1.34,0,1,0,0-2.68H72v-0.92a2.25,2.25,0,0,1,2.24-2.24h51.48a2.24,2.24,0,0,1,2.24,2.24v0.92h-7.12a1.34,1.34,0,1,0,0,2.68H128V270A2.24,2.24,0,0,1,125.74,272.28Z"/><path class="cls-2" d="M109.46,261.47a1.34,1.34,0,0,0-2.48,1,7.54,7.54,0,1,1-4-4.09,1.34,1.34,0,1,0,1-2.47A10.21,10.21,0,1,0,109.46,261.47Z"/><circle class="cls-2" cx="100" cy="265.35" r="3.67"/><path class="cls-2" d="M121.17,434.92h-3.81v-2.67a1.34,1.34,0,1,0-2.68,0v2.67H111v-2.67a1.34,1.34,0,1,0-2.68,0v2.67h-3.72v-2.67a1.34,1.34,0,1,0-2.68,0v2.67H98.14v-2.67a1.34,1.34,0,1,0-2.68,0v2.67H91.73v-2.67a1.34,1.34,0,1,0-2.68,0v2.67H85.32v-2.67a1.34,1.34,0,1,0-2.68,0v2.67H78.83a4,4,0,0,0-4,4v51.93a4,4,0,0,0,4,4h42.35a4,4,0,0,0,4-4V439A4,4,0,0,0,121.17,434.92Zm-42.35,56V448.82h28.82a1.34,1.34,0,1,0,0-2.68H78.83V439h3.81v2.77a1.34,1.34,0,0,0,2.68,0V439H89v2.77a1.34,1.34,0,1,0,2.68,0V439h3.72v2.77a1.34,1.34,0,1,0,2.68,0V439h3.72v2.77a1.34,1.34,0,0,0,2.68,0V439h3.72v2.77a1.34,1.34,0,1,0,2.68,0V439h3.72v2.77a1.34,1.34,0,0,0,2.68,0V439h3.81v7.18h-6a1.34,1.34,0,1,0,0,2.68h6v42.07H78.83Z"/><path class="cls-2" d="M114.51,457.69H98.17a1.34,1.34,0,1,0,0,2.68h16.34A1.34,1.34,0,1,0,114.51,457.69Z"/><path class="cls-2" d="M90.63,457.69H85.49a1.34,1.34,0,1,0,0,2.68h5.13A1.34,1.34,0,1,0,90.63,457.69Z"/><path class="cls-2" d="M114.51,464.74H98.17a1.34,1.34,0,1,0,0,2.68h16.34A1.34,1.34,0,1,0,114.51,464.74Z"/><path class="cls-2" d="M90.63,464.74H85.49a1.34,1.34,0,1,0,0,2.68h5.13A1.34,1.34,0,1,0,90.63,464.74Z"/><path class="cls-2" d="M114.51,472.11H98.17a1.34,1.34,0,1,0,0,2.68h16.34A1.34,1.34,0,1,0,114.51,472.11Z"/><path class="cls-2" d="M90.63,472.11H85.49a1.34,1.34,0,1,0,0,2.68h5.13A1.34,1.34,0,1,0,90.63,472.11Z"/><path class="cls-2" d="M114.51,479.92H98.17a1.34,1.34,0,1,0,0,2.68h16.34A1.34,1.34,0,1,0,114.51,479.92Z"/><path class="cls-2" d="M90.63,479.92H85.49a1.34,1.34,0,1,0,0,2.68h5.13A1.34,1.34,0,1,0,90.63,479.92Z"/><path class="cls-2" d="M81.71,667.31a2,2,0,0,0,2-2v-1.57c0.7-1,6.15-3.23,16.37-3.23s15.67,2.23,16.37,3.23v1.57a2,2,0,0,0,4,0v-1.7c0-5.17-10.84-6.85-18.47-7.08v-1.88a6,6,0,1,0-4,0v1.89c-7.62.26-18.29,2-18.29,7.08v1.7A2,2,0,0,0,81.71,667.31ZM100,647a2,2,0,1,1-2,2A2,2,0,0,1,100,647Z"/><path class="cls-2" d="M91,687.5a4,4,0,0,0,2.75-3.81V679.5a4,4,0,0,0-4-4H89.62l-7-6.38-0.06,0L82.44,669l-0.11-.06-0.12-.06-0.12,0-0.12,0-0.13,0H81.59l-0.13,0-0.13,0-0.12,0-0.12.06L81,669l-0.11.08-0.06,0-7,6.38H73.69a4,4,0,0,0-4,4v4.19a4,4,0,0,0,2.75,3.81A10,10,0,0,0,91,687.5Zm-9.29-15.6,3.93,3.58H77.78Zm0,17.81a6,6,0,0,1-5.48-3.53H81.9a1.34,1.34,0,1,0,0-2.68h-8l-0.17,0v-4h16v4l-0.18,0H86.4a1.34,1.34,0,0,0,0,2.68h0.8A6,6,0,0,1,81.71,689.72Z"/><path class="cls-2" d="M126.38,675.48l-7-6.38-0.06,0L119.2,669l-0.11-.06-0.12-.06-0.12,0-0.12,0-0.13,0h-0.25l-0.13,0-0.12,0-0.12,0-0.12.06-0.11.06-0.11.08-0.06,0-7,6.38h-0.3a4,4,0,0,0-4,4v4.19A4,4,0,0,0,109,687.5a10,10,0,0,0,18.59,0,4,4,0,0,0,2.75-3.81V679.5A4,4,0,0,0,126.38,675.48Zm-7.91-3.58,3.93,3.58h-7.85Zm-0.18,17.81a6,6,0,0,1-5.48-3.53h5.66a1.34,1.34,0,0,0,0-2.68h-8l-0.17,0v-4h16v4l-0.18,0H123a1.34,1.34,0,0,0,0,2.68h0.8A6,6,0,0,1,118.29,689.72Z"/><path class="cls-2" d="M107.8,696.43H102v-32a2,2,0,0,0-4,0v32H92.38a4,4,0,0,0-4,4v2.49a4,4,0,0,0,4,4H107.8a4,4,0,0,0,4-4v-2.49A4,4,0,0,0,107.8,696.43Zm0,6.51H92.38v-2.49H107.8v2.49Z"/><path class="cls-2" d="M66.83,305.05a6.4,6.4,0,0,1-1.77,4.87A7.1,7.1,0,0,1,60,311.6H56.38V298.75h4a6.57,6.57,0,0,1,4.77,1.65A6.17,6.17,0,0,1,66.83,305.05Zm-2.21.07q0-4.61-4.32-4.61H58.48v9.33H60Q64.62,309.83,64.62,305.12Z"/><path class="cls-2" d="M78,306.72a5.31,5.31,0,0,1-1.22,3.72,4.38,4.38,0,0,1-3.4,1.34,4.66,4.66,0,0,1-2.41-.62,4.06,4.06,0,0,1-1.61-1.77,6,6,0,0,1-.56-2.67A5.27,5.27,0,0,1,70,303a4.4,4.4,0,0,1,3.42-1.33,4.28,4.28,0,0,1,3.34,1.36A5.24,5.24,0,0,1,78,306.72Zm-7.08,0q0,3.37,2.49,3.37t2.46-3.37q0-3.33-2.48-3.33a2.11,2.11,0,0,0-1.89.86A4.38,4.38,0,0,0,70.92,306.72Z"/><path class="cls-2" d="M84.29,311.78a4.26,4.26,0,0,1-3.35-1.29A6.53,6.53,0,0,1,81,303a4.45,4.45,0,0,1,3.47-1.32,6.5,6.5,0,0,1,2.77.57l-0.62,1.66a6.26,6.26,0,0,0-2.16-.51q-2.52,0-2.52,3.35a4,4,0,0,0,.63,2.46,2.17,2.17,0,0,0,1.84.82,5.28,5.28,0,0,0,2.61-.69v1.8a4.09,4.09,0,0,1-1.18.47A7.1,7.1,0,0,1,84.29,311.78Z"/><path class="cls-2" d="M96.14,311.6l-0.29-1.27H95.74a2.94,2.94,0,0,1-1.23,1.06,4.1,4.1,0,0,1-1.82.39,3.56,3.56,0,0,1-2.64-.88,3.64,3.64,0,0,1-.87-2.66v-6.35h2.08v6a2.6,2.6,0,0,0,.46,1.67,1.74,1.74,0,0,0,1.43.56,2.28,2.28,0,0,0,1.91-.78,4.3,4.3,0,0,0,.61-2.61v-4.84h2.07v9.72H96.14Z"/><path class="cls-2" d="M108.9,311.6h-2.07v-6a2.72,2.72,0,0,0-.42-1.67,1.56,1.56,0,0,0-1.32-.55,2,2,0,0,0-1.75.78,4.56,4.56,0,0,0-.56,2.59v4.84h-2.07v-9.72h1.62l0.29,1.27h0.11a2.69,2.69,0,0,1,1.17-1.07,3.79,3.79,0,0,1,1.69-.38,3,3,0,0,1,3,1.53h0.14a3,3,0,0,1,1.21-1.12,3.85,3.85,0,0,1,1.79-.4,3.27,3.27,0,0,1,2.54.88,3.9,3.9,0,0,1,.79,2.68v6.34H113v-6a2.7,2.7,0,0,0-.43-1.67,1.57,1.57,0,0,0-1.32-.55,2,2,0,0,0-1.76.75,3.86,3.86,0,0,0-.56,2.31v5.15Z"/><path class="cls-2" d="M122.16,311.78a4.7,4.7,0,0,1-3.55-1.32,5,5,0,0,1-1.28-3.64,5.51,5.51,0,0,1,1.19-3.74,4.1,4.1,0,0,1,3.26-1.36,4,4,0,0,1,3,1.17,4.47,4.47,0,0,1,1.12,3.22v1.12h-6.48a3.19,3.19,0,0,0,.76,2.18,2.66,2.66,0,0,0,2,.76,7.49,7.49,0,0,0,1.6-.16,8.42,8.42,0,0,0,1.6-.54v1.68a6.34,6.34,0,0,1-1.53.51A9.38,9.38,0,0,1,122.16,311.78Zm-0.38-8.51a2.08,2.08,0,0,0-1.58.62,3,3,0,0,0-.71,1.82h4.41a2.69,2.69,0,0,0-.58-1.82A2,2,0,0,0,121.78,303.27Z"/><path class="cls-2" d="M136.84,311.6h-2.07v-6a2.62,2.62,0,0,0-.45-1.68,1.75,1.75,0,0,0-1.44-.55,2.28,2.28,0,0,0-1.92.77,4.27,4.27,0,0,0-.61,2.59v4.84h-2.07v-9.72h1.62l0.29,1.27h0.11a2.88,2.88,0,0,1,1.25-1.07,4.18,4.18,0,0,1,1.79-.38q3.5,0,3.5,3.56v6.34Z"/><path class="cls-2" d="M143.33,310.11a5,5,0,0,0,1.51-.24v1.56a4.18,4.18,0,0,1-.88.25,6.1,6.1,0,0,1-1.12.1q-2.94,0-2.94-3.09v-5.24h-1.33v-0.91l1.42-.76,0.7-2.06H142v2.16h2.77v1.56H142v5.2a1.46,1.46,0,0,0,.37,1.1A1.36,1.36,0,0,0,143.33,310.11Z"/><path class="cls-2" d="M55.49,526.7h-2.1v-11H49.61v-1.8h9.66v1.8H55.49v11Z"/><path class="cls-2" d="M67.1,526.7l-0.41-1.35H66.61a4,4,0,0,1-1.42,1.21,4.48,4.48,0,0,1-1.83.32,3.09,3.09,0,0,1-2.24-.77,2.89,2.89,0,0,1-.8-2.19,2.57,2.57,0,0,1,1.12-2.27,6.44,6.44,0,0,1,3.4-.83l1.68-.05v-0.52a2,2,0,0,0-.43-1.39,1.78,1.78,0,0,0-1.35-.46,4.66,4.66,0,0,0-1.43.22,10.81,10.81,0,0,0-1.32.52l-0.67-1.48a7.19,7.19,0,0,1,1.73-.63,8,8,0,0,1,1.78-.22,4.2,4.2,0,0,1,2.8.81,3.17,3.17,0,0,1,.95,2.54v6.55H67.1ZM64,525.3a2.56,2.56,0,0,0,1.81-.63,2.28,2.28,0,0,0,.68-1.76v-0.84l-1.25.05a4.26,4.26,0,0,0-2.12.49,1.48,1.48,0,0,0-.66,1.33,1.3,1.3,0,0,0,.39,1A1.66,1.66,0,0,0,64,525.3Z"/><path class="cls-2" d="M73.45,521.57l1.17-1.46L77.56,517h2.38L76,521.16l4.16,5.55H77.76l-3.12-4.26-1.13.93v3.33h-2V513h2v6.67l-0.11,1.87h0.05Z"/><path class="cls-2" d="M86,526.88a4.7,4.7,0,0,1-3.55-1.32,5,5,0,0,1-1.28-3.64,5.51,5.51,0,0,1,1.19-3.74,4.1,4.1,0,0,1,3.26-1.36,4,4,0,0,1,3,1.17,4.47,4.47,0,0,1,1.12,3.22v1.12H83.3a3.19,3.19,0,0,0,.76,2.18,2.66,2.66,0,0,0,2,.76,7.49,7.49,0,0,0,1.6-.16,8.42,8.42,0,0,0,1.6-.54v1.68a6.34,6.34,0,0,1-1.53.51A9.38,9.38,0,0,1,86,526.88Zm-0.38-8.51A2.08,2.08,0,0,0,84,519a3,3,0,0,0-.71,1.82h4.41a2.69,2.69,0,0,0-.58-1.82A2,2,0,0,0,85.62,518.37Z"/><path class="cls-2" d="M105,526.7l-1.28-3.57H98.79l-1.26,3.57H95.32l4.81-12.9h2.29l4.81,12.9H105Zm-1.84-5.38-1.2-3.5q-0.13-.35-0.37-1.11t-0.32-1.11a19.7,19.7,0,0,1-.69,2.36l-1.16,3.35h3.74Z"/><path class="cls-2" d="M112.62,526.88a4.26,4.26,0,0,1-3.35-1.29,6.53,6.53,0,0,1,.05-7.47,4.45,4.45,0,0,1,3.47-1.32,6.5,6.5,0,0,1,2.77.57L114.93,519a6.26,6.26,0,0,0-2.16-.51q-2.52,0-2.52,3.35a4,4,0,0,0,.63,2.46,2.17,2.17,0,0,0,1.84.82,5.28,5.28,0,0,0,2.61-.69v1.8a4.09,4.09,0,0,1-1.18.47A7.1,7.1,0,0,1,112.62,526.88Z"/><path class="cls-2" d="M121.23,525.21a5,5,0,0,0,1.51-.24v1.56a4.18,4.18,0,0,1-.88.25,6.1,6.1,0,0,1-1.12.1q-2.94,0-2.94-3.09v-5.24h-1.33v-0.91l1.42-.76,0.7-2.06h1.27V517h2.77v1.56h-2.77v5.2a1.46,1.46,0,0,0,.37,1.1A1.36,1.36,0,0,0,121.23,525.21Z"/><path class="cls-2" d="M124.56,514.41a1.15,1.15,0,0,1,.3-0.85,1.18,1.18,0,0,1,.87-0.3,1.16,1.16,0,0,1,.85.3,1.15,1.15,0,0,1,.3.85,1.13,1.13,0,0,1-.3.83,1.15,1.15,0,0,1-.85.3,1.17,1.17,0,0,1-.87-0.3A1.13,1.13,0,0,1,124.56,514.41Zm2.19,12.3h-2.07V517h2.07v9.72Z"/><path class="cls-2" d="M138.32,521.83a5.31,5.31,0,0,1-1.22,3.72,4.38,4.38,0,0,1-3.4,1.34,4.66,4.66,0,0,1-2.41-.62,4.06,4.06,0,0,1-1.61-1.77,6,6,0,0,1-.56-2.67,5.27,5.27,0,0,1,1.21-3.69,4.4,4.4,0,0,1,3.42-1.33,4.28,4.28,0,0,1,3.34,1.36A5.24,5.24,0,0,1,138.32,521.83Zm-7.08,0q0,3.37,2.49,3.37t2.46-3.37q0-3.33-2.48-3.33a2.11,2.11,0,0,0-1.89.86A4.38,4.38,0,0,0,131.25,521.83Z"/><path class="cls-2" d="M149.25,526.7h-2.07v-6a2.62,2.62,0,0,0-.45-1.68,1.75,1.75,0,0,0-1.44-.55,2.28,2.28,0,0,0-1.92.77,4.27,4.27,0,0,0-.61,2.59v4.84H140.7V517h1.62l0.29,1.27h0.11a2.88,2.88,0,0,1,1.25-1.07,4.18,4.18,0,0,1,1.79-.38q3.5,0,3.5,3.56v6.34Z"/><path class="cls-2" d="M84.16,735.27A3.23,3.23,0,0,1,82.92,738a5.39,5.39,0,0,1-3.42,1,8.16,8.16,0,0,1-3.57-.68v-2a9.72,9.72,0,0,0,1.87.65,7.93,7.93,0,0,0,1.84.24,2.93,2.93,0,0,0,1.84-.47,1.55,1.55,0,0,0,.59-1.27,1.6,1.6,0,0,0-.54-1.22A8.2,8.2,0,0,0,79.28,733a6,6,0,0,1-2.48-1.63,3.44,3.44,0,0,1-.72-2.2,3.08,3.08,0,0,1,1.14-2.53,4.74,4.74,0,0,1,3.07-.92,9,9,0,0,1,3.67.81l-0.67,1.71a8,8,0,0,0-3.06-.72,2.35,2.35,0,0,0-1.55.44,1.46,1.46,0,0,0-.53,1.17,1.65,1.65,0,0,0,.21.86,2.16,2.16,0,0,0,.69.67,11.74,11.74,0,0,0,1.74.83,9.52,9.52,0,0,1,2.07,1.1,3.23,3.23,0,0,1,1,1.15A3.46,3.46,0,0,1,84.16,735.27Z"/><path class="cls-2" d="M95,738.76H92.9v-6a2.62,2.62,0,0,0-.45-1.68,1.75,1.75,0,0,0-1.44-.55,2.28,2.28,0,0,0-1.91.78,4.29,4.29,0,0,0-.61,2.61v4.83H86.43V725.08h2.07v3.47a16.2,16.2,0,0,1-.11,1.78h0.13a2.86,2.86,0,0,1,1.17-1.09,3.78,3.78,0,0,1,1.75-.39q3.53,0,3.53,3.56v6.34Z"/><path class="cls-2" d="M103.93,738.76l-0.41-1.35h-0.07a4,4,0,0,1-1.42,1.21,4.47,4.47,0,0,1-1.83.32,3.09,3.09,0,0,1-2.24-.77,2.89,2.89,0,0,1-.8-2.19,2.57,2.57,0,0,1,1.12-2.27,6.44,6.44,0,0,1,3.4-.83l1.68-.05V732.3a2,2,0,0,0-.43-1.39,1.78,1.78,0,0,0-1.35-.46,4.66,4.66,0,0,0-1.43.22,10.81,10.81,0,0,0-1.32.52l-0.67-1.48a7.19,7.19,0,0,1,1.73-.63,8,8,0,0,1,1.78-.21,4.2,4.2,0,0,1,2.8.81,3.17,3.17,0,0,1,.95,2.54v6.55h-1.48Zm-3.08-1.41a2.56,2.56,0,0,0,1.81-.63,2.28,2.28,0,0,0,.68-1.76v-0.84l-1.25.05a4.27,4.27,0,0,0-2.12.49,1.48,1.48,0,0,0-.66,1.33,1.3,1.3,0,0,0,.39,1A1.66,1.66,0,0,0,100.86,737.35Z"/><path class="cls-2" d="M113.22,728.86a5,5,0,0,1,1,.09l-0.2,1.92a3.9,3.9,0,0,0-.91-0.11,2.65,2.65,0,0,0-2,.81,2.92,2.92,0,0,0-.77,2.1v5.08h-2.07V729h1.62l0.27,1.71h0.11a3.86,3.86,0,0,1,1.26-1.38A3,3,0,0,1,113.22,728.86Z"/><path class="cls-2" d="M120.3,738.93a4.7,4.7,0,0,1-3.55-1.32,5,5,0,0,1-1.28-3.64,5.51,5.51,0,0,1,1.19-3.74,4.1,4.1,0,0,1,3.26-1.36,4,4,0,0,1,3,1.17,4.47,4.47,0,0,1,1.12,3.22v1.12H117.6a3.19,3.19,0,0,0,.76,2.17,2.66,2.66,0,0,0,2,.76,7.49,7.49,0,0,0,1.6-.16,8.41,8.41,0,0,0,1.6-.54v1.68a6.34,6.34,0,0,1-1.53.51A9.38,9.38,0,0,1,120.3,738.93Zm-0.38-8.51a2.08,2.08,0,0,0-1.58.62,3,3,0,0,0-.71,1.82H122a2.69,2.69,0,0,0-.58-1.82A2,2,0,0,0,119.92,730.42Z"/><path class="cls-2" d="M71.36,98a3.46,3.46,0,0,0-2.85,1.28,6.74,6.74,0,0,0,0,7.12,3.53,3.53,0,0,0,2.89,1.21,7.59,7.59,0,0,0,1.58-.16q0.76-.16,1.59-0.42v1.8a9.65,9.65,0,0,1-3.43.57,5.48,5.48,0,0,1-4.33-1.71,7.15,7.15,0,0,1-1.51-4.89A7.92,7.92,0,0,1,66,99.34,5.24,5.24,0,0,1,68.11,97a6.42,6.42,0,0,1,3.26-.8,8.09,8.09,0,0,1,3.64.83l-0.76,1.75a11.25,11.25,0,0,0-1.38-.54A4.94,4.94,0,0,0,71.36,98Z"/><path class="cls-2" d="M85.7,104.4a5.3,5.3,0,0,1-1.22,3.72,4.38,4.38,0,0,1-3.4,1.34,4.66,4.66,0,0,1-2.41-.62,4.06,4.06,0,0,1-1.61-1.77,6,6,0,0,1-.56-2.67,5.27,5.27,0,0,1,1.21-3.69,4.4,4.4,0,0,1,3.42-1.33,4.28,4.28,0,0,1,3.34,1.36A5.25,5.25,0,0,1,85.7,104.4Zm-7.08,0q0,3.37,2.49,3.37t2.46-3.37q0-3.33-2.48-3.33a2.12,2.12,0,0,0-1.89.86A4.4,4.4,0,0,0,78.62,104.4Z"/><path class="cls-2" d="M96.62,109.27H94.55v-6a2.62,2.62,0,0,0-.45-1.68,1.75,1.75,0,0,0-1.44-.55,2.28,2.28,0,0,0-1.92.77,4.27,4.27,0,0,0-.61,2.59v4.84H88.07V99.55h1.62L90,100.83h0.11a2.88,2.88,0,0,1,1.25-1.07,4.18,4.18,0,0,1,1.79-.38q3.5,0,3.5,3.56v6.34Z"/><path class="cls-2" d="M108.05,109.27H106v-6a2.62,2.62,0,0,0-.45-1.68,1.75,1.75,0,0,0-1.44-.55,2.28,2.28,0,0,0-1.92.77,4.27,4.27,0,0,0-.61,2.59v4.84H99.5V99.55h1.62l0.29,1.27h0.11a2.88,2.88,0,0,1,1.25-1.07,4.18,4.18,0,0,1,1.79-.38q3.5,0,3.5,3.56v6.34Z"/><path class="cls-2" d="M115.17,109.45a4.7,4.7,0,0,1-3.54-1.32,5,5,0,0,1-1.28-3.64,5.51,5.51,0,0,1,1.19-3.74,4.1,4.1,0,0,1,3.26-1.36,4,4,0,0,1,3,1.17,4.47,4.47,0,0,1,1.12,3.22v1.12h-6.48a3.19,3.19,0,0,0,.76,2.18,2.67,2.67,0,0,0,2,.76,7.5,7.5,0,0,0,1.6-.16,8.44,8.44,0,0,0,1.6-.54v1.68a6.34,6.34,0,0,1-1.53.51A9.39,9.39,0,0,1,115.17,109.45Zm-0.38-8.51a2.08,2.08,0,0,0-1.58.62,3,3,0,0,0-.71,1.82h4.41a2.69,2.69,0,0,0-.58-1.82A2,2,0,0,0,114.79,100.94Z"/><path class="cls-2" d="M125.22,109.45a4.26,4.26,0,0,1-3.35-1.29,6.53,6.53,0,0,1,.05-7.47,4.45,4.45,0,0,1,3.47-1.32,6.5,6.5,0,0,1,2.77.57l-0.62,1.66a6.26,6.26,0,0,0-2.16-.51q-2.52,0-2.52,3.35a4,4,0,0,0,.63,2.46,2.17,2.17,0,0,0,1.84.82,5.29,5.29,0,0,0,2.61-.69v1.8a4.08,4.08,0,0,1-1.18.46A7.1,7.1,0,0,1,125.22,109.45Z"/><path class="cls-2" d="M133.83,107.78a5,5,0,0,0,1.51-.24v1.55a4.18,4.18,0,0,1-.88.25,6.1,6.1,0,0,1-1.12.1q-2.94,0-2.94-3.09v-5.24h-1.33V100.2l1.42-.76,0.7-2.06h1.28v2.16h2.77v1.56h-2.77v5.2a1.46,1.46,0,0,0,.37,1.1A1.36,1.36,0,0,0,133.83,107.78Z"/><path class="cls-2" d="M100,198.92a2,2,0,0,1-2-2V134.66a2,2,0,0,1,4,0v62.26A2,2,0,0,1,100,198.92Z"/><polygon class="cls-2" points="100 200.62 90.73 184.56 109.27 184.56 100 200.62"/><path class="cls-2" d="M100,201.12a0.5,0.5,0,0,1-.43-0.25L90.3,184.81a0.5,0.5,0,0,1,.43-0.75h18.54a0.5,0.5,0,0,1,.43.75l-9.27,16.06A0.5,0.5,0,0,1,100,201.12Zm-8.41-16.06L100,199.62l8.41-14.56H91.59Z"/><path class="cls-2" d="M100,402.22a2,2,0,0,1-2-2V338a2,2,0,0,1,4,0v62.26A2,2,0,0,1,100,402.22Z"/><polygon class="cls-2" points="100 403.92 90.73 387.86 109.27 387.86 100 403.92"/><path class="cls-2" d="M100,404.42a0.5,0.5,0,0,1-.43-0.25L90.3,388.11a0.5,0.5,0,0,1,.43-0.75h18.54a0.5,0.5,0,0,1,.43.75l-9.27,16.06A0.5,0.5,0,0,1,100,404.42Zm-8.41-16.06L100,402.92l8.41-14.56H91.59Z"/><path class="cls-2" d="M100.09,614a2,2,0,0,1-2-2V549.76a2,2,0,0,1,4,0V612A2,2,0,0,1,100.09,614Z"/><polygon class="cls-2" points="100.09 615.72 90.82 599.66 109.36 599.66 100.09 615.72"/><path class="cls-2" d="M100.09,616.22a0.5,0.5,0,0,1-.43-0.25l-9.27-16.06a0.5,0.5,0,0,1,.43-0.75h18.54a0.5,0.5,0,0,1,.43.75L100.52,616A0.5,0.5,0,0,1,100.09,616.22Zm-8.41-16.06,8.41,14.56,8.41-14.56H91.69Z"/><path class="cls-2" d="M142.44,49.86c-0.58-1.81-1.08-3.41-1.55-4.9-1.47-4.65-2.62-8.33-4.68-14-0.66-1.81-2.76-2.23-5.92-1.18l-3,1c-2.48.81-3.72,1.21-7.57,2.61a1.35,1.35,0,0,1-1.06,0c-4.95-2.52-9-4.54-12.64-6.35a10.38,10.38,0,0,0-7-.67c-0.7.15-1.4,0.32-2.09,0.49-1.11.27-2.26,0.55-3.39,0.74a55.58,55.58,0,0,0-13.23,3.63,0.93,0.93,0,0,1-.64,0c-1.9-1-3-1.5-4.12-2-0.89-.41-1.76-0.81-3-1.44a3.54,3.54,0,0,0-4.79,1.15,129.11,129.11,0,0,0-9.09,15.58l-0.35.66c-1,1.79-1.67,3.08.82,5.6,4.76,4.82,7.68,6.9,13,10.68,0.31,0.22.33,0.27,0.23,0.56a5,5,0,0,0,.82,4.85,8.37,8.37,0,0,0,3.29,2.59,1.48,1.48,0,0,1,.88,1c0.87,2.63,2.76,4,5.18,3.88a1.14,1.14,0,0,1,1.35.72A5,5,0,0,0,90,77.64a0.77,0.77,0,0,1,.33.18A8,8,0,0,0,94.61,80a4,4,0,0,0,4.54-2.33c0.05-.13.1-0.25,0.15-0.39l0.05,0c0.37,0.25.71,0.49,1,.74A11.13,11.13,0,0,0,105,80.27a6.72,6.72,0,0,0,1.3.13,4.46,4.46,0,0,0,4-2.17,0.78,0.78,0,0,1,.82-0.43,6.27,6.27,0,0,0,6.18-4.33,0.69,0.69,0,0,1,.36-0.21c3.14-.55,5.08-2.27,5.78-5.11a0.47,0.47,0,0,1,.06-0.16,1.54,1.54,0,0,1,.38,0,5.32,5.32,0,0,0,2.56-.78,6.39,6.39,0,0,0,3.1-5.37,0.48,0.48,0,0,1,.36-0.51,64.72,64.72,0,0,0,6.63-3.81c1.27-.8,2.58-1.63,4.33-2.64A4.18,4.18,0,0,0,142.44,49.86Zm-32.36,5.29a1.81,1.81,0,0,0,0,2.47,6.35,6.35,0,0,0,.57.55L112.7,60q3.48,3.15,7,6.3a0.67,0.67,0,0,1,.29.79,3,3,0,0,1-3,2.53,1,1,0,0,1-.43-0.27q-3.4-3.22-6.78-6.46l-2.18-2.09a4.87,4.87,0,0,0-.5-0.44,1.81,1.81,0,0,0-2.48,2.6c0.37,0.46.71,0.87,1.1,1.28s1.42,1.32,2.49,2.25c1.89,1.63,5.81,5,5.63,5.92a2.14,2.14,0,0,1-1.11,1.31c-0.84.59-1.22,0.55-2-.24l-0.71-.68q-3.4-3.23-6.81-6.44a2.76,2.76,0,0,0-1.05-.68,2,2,0,0,0-.55-0.08,1.67,1.67,0,0,0-1.47.89,2,2,0,0,0-.24.59,5.2,5.2,0,0,0-.75-1.4,3.67,3.67,0,0,0-2.62-1.29,1.21,1.21,0,0,1-.7-0.45c-1.45-2.55-3.4-3.69-5.93-3.48a5.06,5.06,0,0,0-2.9-3.15c-1.35-.46-3-0.16-4.76.91a5.75,5.75,0,0,0-4-1.85,5.33,5.33,0,0,0-3.87,2.09c-4.19-3-10.05-8.1-12.29-10a1.72,1.72,0,0,1-.41-2.09c1.51-3,5.22-9.24,8.28-14a1.64,1.64,0,0,1,2.1-.58c0.83,0.38,1.66.71,2.46,1a27.28,27.28,0,0,1,4.05,1.88,2.88,2.88,0,0,0,3,.06,33.6,33.6,0,0,1,8-2.67c-1.14,1.23-2.31,2.51-3.41,3.81a6.07,6.07,0,0,0-.92,1.72,4.86,4.86,0,0,0,0,4.14,5.32,5.32,0,0,0,3.71,2.47,7.74,7.74,0,0,0,5-.7,28.19,28.19,0,0,0,4.61-2.64,5.32,5.32,0,0,1,2.77-1h0.16c0.91-.06.9-0.06,1.27,0.85,1.51,3.72,4.49,6.69,9.36,9.35a17,17,0,0,0,2.24,1l0.37,0.14a2.8,2.8,0,0,1,1,.63c3.64,3.61,6.91,6.88,10,10a0.81,0.81,0,0,1,.18.56,2.38,2.38,0,0,1-1,1.6,2.51,2.51,0,0,1-1.93.39,1.44,1.44,0,0,1-.46-0.32l-6.27-5.68-2.89-2.63c-0.27-.25-0.55-0.51-0.84-0.73A1.8,1.8,0,0,0,110.08,55.15Zm-10,13.31a2.26,2.26,0,0,0,.29.34l3,2.88,3.72,3.53,0.13,0.12c0.33,0.3.34,0.35,0.25,0.55a1.09,1.09,0,0,1-1,.86,4.55,4.55,0,0,1-2.79-.83c-1.12-.73-2.31-1.57-3.75-2.63a0.71,0.71,0,0,1-.16-0.43A17.16,17.16,0,0,1,100,71,12.94,12.94,0,0,0,100.08,68.46ZM88.57,74.2a1.09,1.09,0,0,1-1.25-.49,3.94,3.94,0,0,1-1-3.78,15,15,0,0,1,3.15-5.56,1.2,1.2,0,0,1,.87-0.29,1.61,1.61,0,0,1,.8.2,4.76,4.76,0,0,1,.7.55C88.68,67.42,88.45,71,88.57,74.2ZM76,62.41a9.11,9.11,0,0,1,1-1.52A1.81,1.81,0,0,1,78.22,60h0a1.71,1.71,0,0,1,1.13.65A13.42,13.42,0,0,0,77,65.51,2.15,2.15,0,0,1,76,62.41ZM81,69.78a4.77,4.77,0,0,1-.41-3.67A8.27,8.27,0,0,1,84.67,61a2,2,0,0,1,.86-0.27,0.58,0.58,0,0,1,.25.05,2,2,0,0,1,.7,1.41,1.9,1.9,0,0,1-.26.39,17.35,17.35,0,0,0-3.41,6.61c-0.09.39-.15,0.79-0.21,1.19l0,0.21A1.31,1.31,0,0,1,81,69.78ZM93,69a1.84,1.84,0,0,1,1.52-1.34h0.06a1.92,1.92,0,0,1,1.58,1.4,5.34,5.34,0,0,1,.27.74h0l-0.13,1.87c-0.09,1.34-.18,2.68-0.29,4a0.74,0.74,0,0,1-.27.51,0.61,0.61,0,0,1-.46.15,4.16,4.16,0,0,1-2.92-1.79,0.37,0.37,0,0,1-.07-0.17A9.14,9.14,0,0,1,93,69Zm15.48-26.1a11.08,11.08,0,0,1-2.89-5.22,2.18,2.18,0,0,0-2.11-1.7h-0.23l-1.07.11c-1.08.11-2.15,0.22-3.22,0.37a3.76,3.76,0,0,0-1.56.68,18.9,18.9,0,0,1-5.1,3.06,4.77,4.77,0,0,1-2.9.35A1.17,1.17,0,0,1,88.61,40a1.36,1.36,0,0,1,0-1.15A5.87,5.87,0,0,1,89.74,37L90.81,36a41,41,0,0,1,4.66-4.27,8.79,8.79,0,0,1,9.28-1.24c3.59,1.69,7.18,3.55,10.64,5.36L117.67,37a3,3,0,0,0,2.52.11c2.26-.91,3.77-1.37,5.37-1.85s3.06-.93,5.28-1.81l0.91-.35a1.15,1.15,0,0,1,1.48.68c2.05,5.65,5,14.94,5.55,17.43a0.57,0.57,0,0,1-.16.53c-1.38,1.37-6.66,4.46-10.75,6.53a0.59,0.59,0,0,1-.68-0.12c-3-3.07-6.16-6.2-9.3-9.3a4.22,4.22,0,0,0-1.48-.94A21.1,21.1,0,0,1,108.46,42.93Z"/></svg>