<svg id="Layer_2" data-name="Layer 2" xmlns="http://www.w3.org/2000/svg" viewBox="0 0 800 200"><defs><style>.cls-1{fill:#0096d7;}.cls-2{fill:#fff;}</style></defs><title>Flow Diagram-01</title><rect class="cls-1" y="0.26" width="800" height="200"/><path class="cls-2" d="M343.16,63.37h-1.74v-3.3a4,4,0,0,0-4-4h-13.3a4,4,0,0,0-4,4v3.3H291.67a6.27,6.27,0,0,0-6.26,6.26V98.74a6.26,6.26,0,0,0,6.26,6.26H303.3a17.84,17.84,0,0,0,28.23,0h11.63a6.26,6.26,0,0,0,6.26-6.26V69.63A6.27,6.27,0,0,0,343.16,63.37Zm-19-3.3h13.3v3.3h-13.3v-3.3Zm-6.69,47.84a13.86,13.86,0,1,1,13.86-13.86A13.87,13.87,0,0,1,317.42,107.91ZM343.16,101h-9.27a17.87,17.87,0,1,0-32.95,0h-9.27a2.25,2.25,0,0,1-2.24-2.24V73.23h41.33a1.34,1.34,0,1,0,0-2.68H289.43V69.63a2.25,2.25,0,0,1,2.24-2.24h51.48a2.24,2.24,0,0,1,2.24,2.24v0.92h-7.12a1.34,1.34,0,1,0,0,2.68h7.12V98.74A2.24,2.24,0,0,1,343.16,101Z"/><path class="cls-2" d="M326.88,90.17a1.34,1.34,0,0,0-2.48,1,7.54,7.54,0,1,1-4-4.09,1.34,1.34,0,1,0,1-2.47A10.21,10.21,0,1,0,326.88,90.17Z"/><circle class="cls-2" cx="317.42" cy="94.05" r="3.67"/><path class="cls-2" d="M527.82,56H524V53.33a1.34,1.34,0,1,0-2.68,0V56H517.6V53.33a1.34,1.34,0,1,0-2.68,0V56H511.2V53.33a1.34,1.34,0,1,0-2.68,0V56h-3.72V53.33a1.34,1.34,0,1,0-2.68,0V56h-3.72V53.33a1.34,1.34,0,1,0-2.68,0V56H492V53.33a1.34,1.34,0,1,0-2.68,0V56h-3.81a4,4,0,0,0-4,4V112a4,4,0,0,0,4,4h42.35a4,4,0,0,0,4-4V60A4,4,0,0,0,527.82,56Zm-42.35,56V69.9H514.3a1.34,1.34,0,1,0,0-2.68H485.48V60h3.81V62.8a1.34,1.34,0,0,0,2.68,0V60h3.72V62.8a1.34,1.34,0,0,0,2.68,0V60h3.72V62.8a1.34,1.34,0,0,0,2.68,0V60h3.72V62.8a1.34,1.34,0,0,0,2.68,0V60h3.72V62.8a1.34,1.34,0,0,0,2.68,0V60h3.72V62.8a1.34,1.34,0,0,0,2.68,0V60h3.81v7.18h-6a1.34,1.34,0,1,0,0,2.68h6V112H485.48Z"/><path class="cls-2" d="M521.16,78.77H504.82a1.34,1.34,0,1,0,0,2.68h16.34A1.34,1.34,0,1,0,521.16,78.77Z"/><path class="cls-2" d="M497.28,78.77h-5.13a1.34,1.34,0,1,0,0,2.68h5.13A1.34,1.34,0,1,0,497.28,78.77Z"/><path class="cls-2" d="M521.16,85.82H504.82a1.34,1.34,0,1,0,0,2.68h16.34A1.34,1.34,0,1,0,521.16,85.82Z"/><path class="cls-2" d="M497.28,85.82h-5.13a1.34,1.34,0,1,0,0,2.68h5.13A1.34,1.34,0,1,0,497.28,85.82Z"/><path class="cls-2" d="M521.16,93.19H504.82a1.34,1.34,0,1,0,0,2.68h16.34A1.34,1.34,0,1,0,521.16,93.19Z"/><path class="cls-2" d="M497.28,93.19h-5.13a1.34,1.34,0,1,0,0,2.68h5.13A1.34,1.34,0,1,0,497.28,93.19Z"/><path class="cls-2" d="M521.16,101H504.82a1.34,1.34,0,1,0,0,2.68h16.34A1.34,1.34,0,1,0,521.16,101Z"/><path class="cls-2" d="M497.28,101h-5.13a1.34,1.34,0,1,0,0,2.68h5.13A1.34,1.34,0,1,0,497.28,101Z"/><path class="cls-2" d="M677.93,76.34a2,2,0,0,0,2-2V72.76c0.7-1,6.15-3.23,16.37-3.23s15.67,2.23,16.37,3.23v1.57a2,2,0,0,0,4,0v-1.7c0-5.17-10.84-6.85-18.47-7.08V63.66a6,6,0,1,0-4,0v1.89c-7.62.26-18.29,2-18.29,7.08v1.7A2,2,0,0,0,677.93,76.34ZM696.22,56a2,2,0,1,1-2,2A2,2,0,0,1,696.22,56Z"/><path class="cls-2" d="M687.22,96.53A4,4,0,0,0,690,92.72V88.53a4,4,0,0,0-4-4h-0.12l-7-6.38-0.06,0L678.66,78l-0.11-.06-0.12-.06-0.12,0-0.12,0-0.13,0H677.8l-0.13,0-0.13,0-0.12,0-0.12.06L677.2,78l-0.11.08-0.06,0-7,6.38h-0.12a4,4,0,0,0-4,4v4.19a4,4,0,0,0,2.75,3.81A10,10,0,0,0,687.22,96.53Zm-9.29-15.6,3.93,3.58H674Zm0,17.81a6,6,0,0,1-5.48-3.53h5.66a1.34,1.34,0,1,0,0-2.68h-8l-0.17,0v-4h16v4l-0.18,0h-3.16a1.34,1.34,0,0,0,0,2.68h0.8A6,6,0,0,1,677.93,98.75Z"/><path class="cls-2" d="M722.6,84.51l-7-6.38-0.06,0L715.42,78l-0.11-.06-0.12-.06-0.12,0-0.12,0-0.13,0h-0.25l-0.13,0-0.12,0-0.12,0-0.12.06L714,78l-0.11.08-0.06,0-7,6.38h-0.3a4,4,0,0,0-4,4v4.19a4,4,0,0,0,2.75,3.81,10,10,0,0,0,18.59,0,4,4,0,0,0,2.75-3.81V88.53A4,4,0,0,0,722.6,84.51Zm-7.91-3.58,3.93,3.58h-7.85Zm-0.18,17.81A6,6,0,0,1,709,95.22h5.66a1.34,1.34,0,0,0,0-2.68h-8l-0.17,0v-4h16v4l-0.18,0h-3.16a1.34,1.34,0,0,0,0,2.68H720A6,6,0,0,1,714.51,98.75Z"/><path class="cls-2" d="M704,105.46h-5.8v-32a2,2,0,0,0-4,0v32H688.6a4,4,0,0,0-4,4V112a4,4,0,0,0,4,4H704a4,4,0,0,0,4-4v-2.49A4,4,0,0,0,704,105.46Zm0,6.51H688.6v-2.49H704V112Z"/><path class="cls-2" d="M444.93,86H382.67a2,2,0,0,1,0-4h62.27A2,2,0,0,1,444.93,86Z"/><polygon class="cls-2" points="448.63 83.99 432.57 93.26 432.57 74.72 448.63 83.99"/><path class="cls-2" d="M432.57,93.76a0.5,0.5,0,0,1-.5-0.5V74.71a0.5,0.5,0,0,1,.75-0.43l16.06,9.27a0.5,0.5,0,0,1,0,.87l-16.06,9.27A0.5,0.5,0,0,1,432.57,93.76Zm0.5-18.18V92.39L447.63,84Z"/><path class="cls-2" d="M248.89,86H186.63a2,2,0,0,1,0-4h62.27A2,2,0,0,1,248.89,86Z"/><polygon class="cls-2" points="252.59 83.99 236.53 93.26 236.53 74.72 252.59 83.99"/><path class="cls-2" d="M236.53,93.76a0.5,0.5,0,0,1-.5-0.5V74.71a0.5,0.5,0,0,1,.75-0.43l16.06,9.27a0.5,0.5,0,0,1,0,.87l-16.06,9.27A0.5,0.5,0,0,1,236.53,93.76ZM237,75.58V92.39L251.59,84Z"/><path class="cls-2" d="M628.65,86H566.39a2,2,0,0,1,0-4h62.27A2,2,0,0,1,628.65,86Z"/><polygon class="cls-2" points="632.35 83.99 616.29 93.26 616.29 74.72 632.35 83.99"/><path class="cls-2" d="M616.29,93.76a0.5,0.5,0,0,1-.5-0.5V74.71a0.5,0.5,0,0,1,.75-0.43l16.06,9.27a0.5,0.5,0,0,1,0,.87l-16.06,9.27A0.5,0.5,0,0,1,616.29,93.76Zm0.5-18.18V92.39L631.35,84Z"/><path class="cls-2" d="M154.17,80.63c-0.58-1.81-1.08-3.41-1.55-4.9-1.47-4.65-2.62-8.33-4.68-14-0.66-1.81-2.76-2.23-5.92-1.18l-3,1c-2.48.81-3.73,1.21-7.58,2.62a1.33,1.33,0,0,1-1.06,0c-4.92-2.51-8.94-4.52-12.64-6.35a10.38,10.38,0,0,0-7-.67c-0.7.15-1.39,0.32-2.09,0.49-1.11.27-2.26,0.55-3.4,0.74A55.56,55.56,0,0,0,92,62a0.93,0.93,0,0,1-.64,0c-1.91-1-3-1.5-4.13-2-0.88-.41-1.75-0.81-3-1.44a3.54,3.54,0,0,0-4.79,1.15,129.32,129.32,0,0,0-9.09,15.58L70,75.91c-1,1.79-1.67,3.08.82,5.6,4.76,4.83,7.68,6.9,13,10.68,0.31,0.22.33,0.27,0.23,0.56a5,5,0,0,0,.82,4.84,8.36,8.36,0,0,0,3.29,2.59,1.48,1.48,0,0,1,.88,1c0.88,2.63,2.77,4.05,5.18,3.88a1.14,1.14,0,0,1,1.35.72,5,5,0,0,0,6.16,2.62,0.79,0.79,0,0,1,.33.18,8,8,0,0,0,4.29,2.16,4,4,0,0,0,4.54-2.33c0.05-.13.1-0.26,0.15-0.39l0,0c0.37,0.25.72,0.49,1.05,0.74a11.15,11.15,0,0,0,4.63,2.24,6.69,6.69,0,0,0,1.3.13,4.46,4.46,0,0,0,4-2.17,0.78,0.78,0,0,1,.81-0.43,6.27,6.27,0,0,0,6.19-4.33,0.69,0.69,0,0,1,.36-0.21c3.14-.55,5.08-2.27,5.78-5.12a0.48,0.48,0,0,1,.06-0.16,1.57,1.57,0,0,1,.38,0,5.31,5.31,0,0,0,2.56-.78,6.4,6.4,0,0,0,3.1-5.37,0.48,0.48,0,0,1,.36-0.51,64.7,64.7,0,0,0,6.64-3.81c1.27-.8,2.58-1.63,4.32-2.64A4.18,4.18,0,0,0,154.17,80.63Zm-32.36,5.29a1.82,1.82,0,0,0,0,2.47,6.68,6.68,0,0,0,.57.54l2.05,1.86q3.48,3.16,7,6.31a0.67,0.67,0,0,1,.29.79,3,3,0,0,1-3,2.53,1,1,0,0,1-.43-0.27q-3.42-3.25-6.83-6.51l-2.13-2a5,5,0,0,0-.5-0.44,1.81,1.81,0,0,0-2.48,2.6c0.37,0.46.71,0.87,1.1,1.28s1.42,1.33,2.49,2.25c1.89,1.63,5.81,5,5.63,5.92a2.14,2.14,0,0,1-1.11,1.31c-0.84.59-1.22,0.55-2-.24l-0.63-.59q-3.44-3.27-6.89-6.52a2.71,2.71,0,0,0-1.05-.68,2,2,0,0,0-.55-0.08,1.67,1.67,0,0,0-1.47.89,2.05,2.05,0,0,0-.24.59,5.19,5.19,0,0,0-.75-1.4,3.67,3.67,0,0,0-2.62-1.29,1.2,1.2,0,0,1-.7-0.45c-1.44-2.55-3.38-3.69-5.93-3.48a5.05,5.05,0,0,0-2.9-3.15c-1.35-.46-3-0.15-4.76.91a5.69,5.69,0,0,0-4-1.85A5.33,5.33,0,0,0,86,89.26c-4.19-3-10-8.1-12.29-10a1.72,1.72,0,0,1-.41-2.09c1.5-2.94,5.22-9.23,8.28-14a1.64,1.64,0,0,1,2.1-.58c0.83,0.38,1.65.71,2.46,1a27.25,27.25,0,0,1,4.05,1.88,2.88,2.88,0,0,0,3,.06,33.61,33.61,0,0,1,8-2.67c-1.14,1.23-2.31,2.51-3.41,3.81a6.06,6.06,0,0,0-.92,1.72,4.86,4.86,0,0,0,0,4.14A5.32,5.32,0,0,0,100.61,75a7.74,7.74,0,0,0,5-.7,28.14,28.14,0,0,0,4.61-2.64,5.33,5.33,0,0,1,2.77-1h0.16c0.9-.06.9-0.06,1.27,0.85,1.51,3.72,4.49,6.69,9.36,9.35a17,17,0,0,0,2.25,1l0.37,0.14a2.8,2.8,0,0,1,1,.63c3.64,3.61,6.9,6.88,10,10a0.82,0.82,0,0,1,.18.56,2.38,2.38,0,0,1-1,1.6,2.52,2.52,0,0,1-1.93.39,1.45,1.45,0,0,1-.45-0.32l-6.54-5.92-2.63-2.38c-0.27-.25-0.55-0.51-0.85-0.73A1.81,1.81,0,0,0,121.81,85.92Zm-10,13.31a2.29,2.29,0,0,0,.29.34l3.16,3,0.79,0.75,2.8,2.65,0.13,0.12c0.34,0.31.34,0.34,0.25,0.55a1.09,1.09,0,0,1-1,.86,4.63,4.63,0,0,1-2.79-.83c-1.12-.73-2.31-1.56-3.75-2.63a0.71,0.71,0,0,1-.16-0.43,17.16,17.16,0,0,1,.14-1.8A13,13,0,0,0,111.81,99.23ZM100.3,105a1.08,1.08,0,0,1-1.25-.49,3.94,3.94,0,0,1-1-3.79,15,15,0,0,1,3.15-5.56,1.2,1.2,0,0,1,.87-0.29,1.61,1.61,0,0,1,.8.2,4.78,4.78,0,0,1,.7.55C100.4,98.19,100.17,101.75,100.3,105ZM87.75,93.18a9.23,9.23,0,0,1,.95-1.52,1.82,1.82,0,0,1,1.24-.85h0a1.71,1.71,0,0,1,1.13.65,13.4,13.4,0,0,0-2.41,4.82A2.15,2.15,0,0,1,87.75,93.18Zm4.93,7.37a4.77,4.77,0,0,1-.41-3.67,8.27,8.27,0,0,1,4.12-5.07,2,2,0,0,1,.86-0.28,0.58,0.58,0,0,1,.25.05A2,2,0,0,1,98.2,93a1.9,1.9,0,0,1-.26.39A17.37,17.37,0,0,0,94.54,100c-0.09.39-.15,0.79-0.21,1.19l0,0.22A1.31,1.31,0,0,1,92.68,100.55Zm12-.75a1.84,1.84,0,0,1,1.52-1.34h0.06a1.92,1.92,0,0,1,1.58,1.4,5.37,5.37,0,0,1,.27.75h0L108,102.49c-0.09,1.33-.18,2.67-0.29,4a0.74,0.74,0,0,1-.27.51,0.59,0.59,0,0,1-.46.14,4.16,4.16,0,0,1-2.92-1.79,0.35,0.35,0,0,1-.07-0.17A9.13,9.13,0,0,1,104.71,99.8Zm15.48-26.1a11.07,11.07,0,0,1-2.89-5.22,2.18,2.18,0,0,0-2.11-1.7H115l-1.08.11c-1.07.11-2.14,0.22-3.2,0.37a3.74,3.74,0,0,0-1.56.68A18.9,18.9,0,0,1,104,71a4.79,4.79,0,0,1-2.9.35,1.17,1.17,0,0,1-.78-0.63,1.36,1.36,0,0,1,0-1.15,5.9,5.9,0,0,1,1.13-1.77l1.08-1.09a40.9,40.9,0,0,1,4.66-4.27,8.79,8.79,0,0,1,9.28-1.24c3.59,1.69,7.18,3.55,10.65,5.36l2.27,1.18a3,3,0,0,0,2.51.11c2.26-.91,3.77-1.37,5.37-1.85s3.06-.93,5.28-1.81l0.91-.35a1.15,1.15,0,0,1,.89,0,1.13,1.13,0,0,1,.6.65C147,70.19,150,79.47,150.5,82a0.57,0.57,0,0,1-.15.53c-1.38,1.37-6.66,4.46-10.75,6.53a0.59,0.59,0,0,1-.68-0.12c-3.05-3.09-6.18-6.22-9.3-9.3a4.23,4.23,0,0,0-1.48-.94A21.09,21.09,0,0,1,120.19,73.7Z"/><path class="cls-2" d="M284.3,143.82a6.4,6.4,0,0,1-1.77,4.87,7.1,7.1,0,0,1-5.09,1.68h-3.59V137.52h4a6.57,6.57,0,0,1,4.77,1.65A6.17,6.17,0,0,1,284.3,143.82Zm-2.21.07q0-4.61-4.32-4.61h-1.82v9.33h1.49Q282.08,148.61,282.08,143.89Z"/><path class="cls-2" d="M295.46,145.49a5.31,5.31,0,0,1-1.22,3.72,4.38,4.38,0,0,1-3.4,1.34,4.66,4.66,0,0,1-2.41-.62,4.06,4.06,0,0,1-1.61-1.77,6,6,0,0,1-.56-2.67,5.27,5.27,0,0,1,1.21-3.69,4.4,4.4,0,0,1,3.42-1.33,4.28,4.28,0,0,1,3.34,1.36A5.24,5.24,0,0,1,295.46,145.49Zm-7.08,0q0,3.37,2.49,3.37t2.46-3.37q0-3.33-2.48-3.33A2.11,2.11,0,0,0,289,143,4.38,4.38,0,0,0,288.39,145.49Z"/><path class="cls-2" d="M301.75,150.55a4.26,4.26,0,0,1-3.35-1.29,6.53,6.53,0,0,1,.05-7.47,4.45,4.45,0,0,1,3.47-1.32,6.5,6.5,0,0,1,2.77.57l-0.62,1.66a6.26,6.26,0,0,0-2.16-.51q-2.52,0-2.52,3.35A4,4,0,0,0,300,148a2.17,2.17,0,0,0,1.84.82,5.28,5.28,0,0,0,2.61-.69v1.8a4.09,4.09,0,0,1-1.18.47A7.1,7.1,0,0,1,301.75,150.55Z"/><path class="cls-2" d="M313.6,150.37l-0.29-1.27h-0.11a2.94,2.94,0,0,1-1.23,1.06,4.1,4.1,0,0,1-1.82.39,3.56,3.56,0,0,1-2.64-.88,3.64,3.64,0,0,1-.87-2.66v-6.35h2.08v6a2.6,2.6,0,0,0,.46,1.67,1.74,1.74,0,0,0,1.43.56,2.28,2.28,0,0,0,1.91-.78,4.3,4.3,0,0,0,.61-2.61v-4.84h2.07v9.72H313.6Z"/><path class="cls-2" d="M326.36,150.37h-2.07v-6a2.72,2.72,0,0,0-.42-1.67,1.56,1.56,0,0,0-1.32-.55,2,2,0,0,0-1.75.78,4.56,4.56,0,0,0-.56,2.59v4.84h-2.07v-9.72h1.62l0.29,1.27h0.11a2.69,2.69,0,0,1,1.17-1.07,3.79,3.79,0,0,1,1.69-.38,3,3,0,0,1,3,1.53h0.14a3,3,0,0,1,1.21-1.12,3.85,3.85,0,0,1,1.79-.4,3.27,3.27,0,0,1,2.54.88,3.9,3.9,0,0,1,.79,2.68v6.34h-2.07v-6a2.7,2.7,0,0,0-.43-1.67,1.57,1.57,0,0,0-1.32-.55,2,2,0,0,0-1.76.75,3.86,3.86,0,0,0-.56,2.31v5.15Z"/><path class="cls-2" d="M339.63,150.55a4.7,4.7,0,0,1-3.55-1.32,5,5,0,0,1-1.28-3.64,5.51,5.51,0,0,1,1.19-3.74,4.1,4.1,0,0,1,3.26-1.36,4,4,0,0,1,3,1.17,4.47,4.47,0,0,1,1.12,3.22V146h-6.48a3.19,3.19,0,0,0,.76,2.18,2.66,2.66,0,0,0,2,.76,7.49,7.49,0,0,0,1.6-.16,8.42,8.42,0,0,0,1.6-.54v1.68a6.34,6.34,0,0,1-1.53.51A9.38,9.38,0,0,1,339.63,150.55ZM339.25,142a2.08,2.08,0,0,0-1.58.62,3,3,0,0,0-.71,1.82h4.41a2.69,2.69,0,0,0-.58-1.82A2,2,0,0,0,339.25,142Z"/><path class="cls-2" d="M354.3,150.37h-2.07v-6a2.62,2.62,0,0,0-.45-1.68,1.75,1.75,0,0,0-1.44-.55,2.28,2.28,0,0,0-1.92.77,4.27,4.27,0,0,0-.61,2.59v4.84h-2.07v-9.72h1.62l0.29,1.27h0.11a2.88,2.88,0,0,1,1.25-1.07,4.18,4.18,0,0,1,1.79-.38q3.5,0,3.5,3.56v6.34Z"/><path class="cls-2" d="M360.8,148.88a5,5,0,0,0,1.51-.24v1.56a4.18,4.18,0,0,1-.88.25,6.1,6.1,0,0,1-1.12.1q-2.94,0-2.94-3.09v-5.24H356V141.3l1.42-.76,0.7-2.06h1.27v2.16h2.77v1.56h-2.77v5.2a1.46,1.46,0,0,0,.37,1.1A1.36,1.36,0,0,0,360.8,148.88Z"/><path class="cls-2" d="M464,150.79h-2.1v-11h-3.78v-1.8h9.66v1.8H464v11Z"/><path class="cls-2" d="M475.65,150.79l-0.41-1.35h-0.07a4,4,0,0,1-1.42,1.21,4.48,4.48,0,0,1-1.83.32,3.09,3.09,0,0,1-2.24-.77,2.89,2.89,0,0,1-.8-2.19,2.57,2.57,0,0,1,1.12-2.27,6.44,6.44,0,0,1,3.4-.83l1.68-.05v-0.52a2,2,0,0,0-.43-1.39,1.78,1.78,0,0,0-1.35-.46,4.66,4.66,0,0,0-1.43.22,10.81,10.81,0,0,0-1.32.52l-0.67-1.48a7.19,7.19,0,0,1,1.73-.63,8,8,0,0,1,1.78-.22,4.2,4.2,0,0,1,2.8.81,3.17,3.17,0,0,1,.95,2.54v6.55h-1.48Zm-3.08-1.41a2.56,2.56,0,0,0,1.81-.63,2.28,2.28,0,0,0,.68-1.76v-0.84l-1.25.05a4.26,4.26,0,0,0-2.12.49A1.48,1.48,0,0,0,471,148a1.3,1.3,0,0,0,.39,1A1.66,1.66,0,0,0,472.58,149.38Z"/><path class="cls-2" d="M482,145.65l1.17-1.46,2.94-3.13h2.38l-3.91,4.17,4.16,5.55h-2.43l-3.12-4.26-1.13.93v3.33h-2V137.11h2v6.67L482,145.65H482Z"/><path class="cls-2" d="M494.55,151a4.7,4.7,0,0,1-3.55-1.32,5,5,0,0,1-1.28-3.64,5.51,5.51,0,0,1,1.19-3.74,4.1,4.1,0,0,1,3.26-1.36,4,4,0,0,1,3,1.17,4.47,4.47,0,0,1,1.12,3.22v1.12h-6.48a3.19,3.19,0,0,0,.76,2.18,2.66,2.66,0,0,0,2,.76,7.49,7.49,0,0,0,1.6-.16,8.42,8.42,0,0,0,1.6-.54v1.68a6.34,6.34,0,0,1-1.53.51A9.38,9.38,0,0,1,494.55,151Zm-0.38-8.51a2.08,2.08,0,0,0-1.58.62,3,3,0,0,0-.71,1.82h4.41a2.69,2.69,0,0,0-.58-1.82A2,2,0,0,0,494.17,142.45Z"/><path class="cls-2" d="M513.54,150.79l-1.28-3.57h-4.91l-1.26,3.57h-2.21l4.81-12.9H511l4.81,12.9h-2.23Zm-1.84-5.38-1.2-3.5q-0.13-.35-0.37-1.11t-0.32-1.11a19.7,19.7,0,0,1-.69,2.36L508,145.41h3.74Z"/><path class="cls-2" d="M521.17,151a4.26,4.26,0,0,1-3.35-1.29,6.53,6.53,0,0,1,.05-7.47,4.45,4.45,0,0,1,3.47-1.32,6.5,6.5,0,0,1,2.77.57l-0.62,1.66a6.26,6.26,0,0,0-2.16-.51q-2.52,0-2.52,3.35a4,4,0,0,0,.63,2.46,2.17,2.17,0,0,0,1.84.82,5.28,5.28,0,0,0,2.61-.69v1.8a4.09,4.09,0,0,1-1.18.47A7.1,7.1,0,0,1,521.17,151Z"/><path class="cls-2" d="M529.79,149.29a5,5,0,0,0,1.51-.24v1.56a4.18,4.18,0,0,1-.88.25,6.1,6.1,0,0,1-1.12.1q-2.94,0-2.94-3.09v-5.24H525v-0.91l1.42-.76,0.7-2.06h1.27v2.16h2.77v1.56h-2.77v5.2a1.46,1.46,0,0,0,.37,1.1A1.36,1.36,0,0,0,529.79,149.29Z"/><path class="cls-2" d="M533.12,138.49a1.15,1.15,0,0,1,.3-0.85,1.18,1.18,0,0,1,.87-0.3,1.16,1.16,0,0,1,.85.3,1.15,1.15,0,0,1,.3.85,1.13,1.13,0,0,1-.3.83,1.15,1.15,0,0,1-.85.3,1.17,1.17,0,0,1-.87-0.3A1.13,1.13,0,0,1,533.12,138.49Zm2.19,12.3h-2.07v-9.72h2.07v9.72Z"/><path class="cls-2" d="M546.88,145.91a5.31,5.31,0,0,1-1.22,3.72,4.38,4.38,0,0,1-3.4,1.34,4.66,4.66,0,0,1-2.41-.62,4.06,4.06,0,0,1-1.61-1.77,6,6,0,0,1-.56-2.67,5.27,5.27,0,0,1,1.21-3.69,4.4,4.4,0,0,1,3.42-1.33,4.28,4.28,0,0,1,3.34,1.36A5.24,5.24,0,0,1,546.88,145.91Zm-7.08,0q0,3.37,2.49,3.37t2.46-3.37q0-3.33-2.48-3.33a2.11,2.11,0,0,0-1.89.86A4.38,4.38,0,0,0,539.81,145.91Z"/><path class="cls-2" d="M557.81,150.79h-2.07v-6a2.62,2.62,0,0,0-.45-1.68,1.75,1.75,0,0,0-1.44-.55,2.28,2.28,0,0,0-1.92.77,4.27,4.27,0,0,0-.61,2.59v4.84h-2.07v-9.72h1.62l0.29,1.27h0.11a2.88,2.88,0,0,1,1.25-1.07,4.18,4.18,0,0,1,1.79-.38q3.5,0,3.5,3.56v6.34Z"/><path class="cls-2" d="M681.17,147.3a3.23,3.23,0,0,1-1.24,2.69,5.39,5.39,0,0,1-3.42,1,8.16,8.16,0,0,1-3.57-.68v-2a9.72,9.72,0,0,0,1.87.65,7.93,7.93,0,0,0,1.84.24,2.93,2.93,0,0,0,1.84-.47,1.55,1.55,0,0,0,.59-1.27,1.6,1.6,0,0,0-.54-1.22,8.2,8.2,0,0,0-2.25-1.19,6,6,0,0,1-2.48-1.63,3.44,3.44,0,0,1-.72-2.2,3.08,3.08,0,0,1,1.14-2.53,4.74,4.74,0,0,1,3.07-.92,9,9,0,0,1,3.67.81l-0.67,1.71a8,8,0,0,0-3.06-.72,2.35,2.35,0,0,0-1.55.44,1.46,1.46,0,0,0-.53,1.17,1.65,1.65,0,0,0,.21.86,2.16,2.16,0,0,0,.69.67,11.74,11.74,0,0,0,1.74.83,9.52,9.52,0,0,1,2.07,1.1,3.23,3.23,0,0,1,1,1.15A3.46,3.46,0,0,1,681.17,147.3Z"/><path class="cls-2" d="M692,150.79h-2.07v-6a2.62,2.62,0,0,0-.45-1.68,1.75,1.75,0,0,0-1.44-.55,2.28,2.28,0,0,0-1.91.78,4.29,4.29,0,0,0-.61,2.61v4.83h-2.07V137.11h2.07v3.47a16.2,16.2,0,0,1-.11,1.78h0.13a2.86,2.86,0,0,1,1.17-1.09,3.78,3.78,0,0,1,1.75-.39q3.53,0,3.53,3.56v6.34Z"/><path class="cls-2" d="M700.95,150.79l-0.41-1.35h-0.07a4,4,0,0,1-1.42,1.21,4.47,4.47,0,0,1-1.83.32,3.09,3.09,0,0,1-2.24-.77,2.89,2.89,0,0,1-.8-2.19,2.57,2.57,0,0,1,1.12-2.27,6.44,6.44,0,0,1,3.4-.83l1.68-.05v-0.52a2,2,0,0,0-.43-1.39,1.78,1.78,0,0,0-1.35-.46,4.66,4.66,0,0,0-1.43.22,10.81,10.81,0,0,0-1.32.52l-0.67-1.48a7.19,7.19,0,0,1,1.73-.63,8,8,0,0,1,1.78-.21,4.2,4.2,0,0,1,2.8.81,3.17,3.17,0,0,1,.95,2.54v6.55h-1.48Zm-3.08-1.41a2.56,2.56,0,0,0,1.81-.63,2.28,2.28,0,0,0,.68-1.76v-0.84l-1.25.05a4.27,4.27,0,0,0-2.12.49,1.48,1.48,0,0,0-.66,1.33,1.3,1.3,0,0,0,.39,1A1.66,1.66,0,0,0,697.87,149.38Z"/><path class="cls-2" d="M710.24,140.89a5,5,0,0,1,1,.09l-0.2,1.92a3.9,3.9,0,0,0-.91-0.11,2.65,2.65,0,0,0-2,.81,2.92,2.92,0,0,0-.77,2.1v5.08h-2.07v-9.72h1.62l0.27,1.71h0.11a3.86,3.86,0,0,1,1.26-1.38A3,3,0,0,1,710.24,140.89Z"/><path class="cls-2" d="M717.31,151a4.7,4.7,0,0,1-3.55-1.32,5,5,0,0,1-1.28-3.64,5.51,5.51,0,0,1,1.19-3.74,4.1,4.1,0,0,1,3.26-1.36,4,4,0,0,1,3,1.17,4.47,4.47,0,0,1,1.12,3.22v1.12h-6.48a3.19,3.19,0,0,0,.76,2.17,2.66,2.66,0,0,0,2,.76,7.49,7.49,0,0,0,1.6-.16,8.41,8.41,0,0,0,1.6-.54v1.68a6.34,6.34,0,0,1-1.53.51A9.38,9.38,0,0,1,717.31,151Zm-0.38-8.51a2.08,2.08,0,0,0-1.58.62,3,3,0,0,0-.71,1.82h4.41a2.69,2.69,0,0,0-.58-1.82A2,2,0,0,0,716.93,142.45Z"/><path class="cls-2" d="M81.19,139.23a3.46,3.46,0,0,0-2.85,1.28,6.74,6.74,0,0,0,0,7.12,3.53,3.53,0,0,0,2.89,1.21,7.59,7.59,0,0,0,1.58-.16q0.76-.16,1.59-0.42v1.8a9.65,9.65,0,0,1-3.43.57,5.48,5.48,0,0,1-4.33-1.71A7.15,7.15,0,0,1,75.09,144a7.92,7.92,0,0,1,.73-3.51,5.24,5.24,0,0,1,2.12-2.3,6.42,6.42,0,0,1,3.26-.8,8.09,8.09,0,0,1,3.64.83L84.09,140a11.25,11.25,0,0,0-1.38-.54A4.94,4.94,0,0,0,81.19,139.23Z"/><path class="cls-2" d="M95.54,145.59a5.3,5.3,0,0,1-1.22,3.72,4.38,4.38,0,0,1-3.4,1.34,4.66,4.66,0,0,1-2.41-.62,4.06,4.06,0,0,1-1.61-1.77,6,6,0,0,1-.56-2.67,5.27,5.27,0,0,1,1.21-3.69A4.4,4.4,0,0,1,91,140.57a4.28,4.28,0,0,1,3.34,1.36A5.25,5.25,0,0,1,95.54,145.59Zm-7.08,0q0,3.37,2.49,3.37t2.46-3.37q0-3.33-2.48-3.33a2.12,2.12,0,0,0-1.89.86A4.4,4.4,0,0,0,88.46,145.59Z"/><path class="cls-2" d="M106.46,150.46h-2.07v-6a2.62,2.62,0,0,0-.45-1.68,1.75,1.75,0,0,0-1.44-.55,2.28,2.28,0,0,0-1.92.77,4.27,4.27,0,0,0-.61,2.59v4.84H97.91v-9.72h1.62L99.82,142h0.11a2.88,2.88,0,0,1,1.25-1.07,4.18,4.18,0,0,1,1.79-.38q3.5,0,3.5,3.56v6.34Z"/><path class="cls-2" d="M117.89,150.46h-2.07v-6a2.62,2.62,0,0,0-.45-1.68,1.75,1.75,0,0,0-1.44-.55A2.28,2.28,0,0,0,112,143a4.27,4.27,0,0,0-.61,2.59v4.84h-2.06v-9.72H111l0.29,1.27h0.11a2.88,2.88,0,0,1,1.25-1.07,4.18,4.18,0,0,1,1.79-.38q3.5,0,3.5,3.56v6.34Z"/><path class="cls-2" d="M125,150.64a4.7,4.7,0,0,1-3.54-1.32,5,5,0,0,1-1.28-3.64,5.51,5.51,0,0,1,1.19-3.74,4.1,4.1,0,0,1,3.26-1.36,4,4,0,0,1,3,1.17,4.47,4.47,0,0,1,1.12,3.22v1.12h-6.48a3.19,3.19,0,0,0,.76,2.18,2.67,2.67,0,0,0,2,.76,7.5,7.5,0,0,0,1.6-.16,8.44,8.44,0,0,0,1.6-.54V150a6.34,6.34,0,0,1-1.53.51A9.39,9.39,0,0,1,125,150.64Zm-0.38-8.51a2.08,2.08,0,0,0-1.58.62,3,3,0,0,0-.71,1.82h4.41a2.69,2.69,0,0,0-.58-1.82A2,2,0,0,0,124.63,142.13Z"/><path class="cls-2" d="M135.05,150.64a4.26,4.26,0,0,1-3.35-1.29,6.53,6.53,0,0,1,.05-7.47,4.45,4.45,0,0,1,3.47-1.32,6.5,6.5,0,0,1,2.77.57l-0.62,1.66a6.26,6.26,0,0,0-2.16-.51q-2.52,0-2.52,3.35a4,4,0,0,0,.63,2.46,2.17,2.17,0,0,0,1.84.82,5.29,5.29,0,0,0,2.61-.69V150a4.08,4.08,0,0,1-1.18.46A7.1,7.1,0,0,1,135.05,150.64Z"/><path class="cls-2" d="M143.67,149a5,5,0,0,0,1.51-.24v1.55a4.18,4.18,0,0,1-.88.25,6.1,6.1,0,0,1-1.12.1q-2.94,0-2.94-3.09v-5.24h-1.33v-0.91l1.42-.76,0.7-2.06h1.28v2.16h2.77v1.56h-2.77v5.2a1.46,1.46,0,0,0,.37,1.1A1.36,1.36,0,0,0,143.67,149Z"/></svg>