<svg id="Layer_2" data-name="Layer 2" xmlns="http://www.w3.org/2000/svg" viewBox="0 0 800 200"><defs><style>.cls-1{fill:#0096d7;}.cls-2{fill:#fff;}</style></defs><title>Flow Diagram</title><rect class="cls-1" y="0.26" width="800" height="200"/><path class="cls-2" d="M343.16,79.38h-1.74v-3.3a4,4,0,0,0-4-4h-13.3a4,4,0,0,0-4,4v3.3H291.67a6.27,6.27,0,0,0-6.26,6.26v29.11a6.26,6.26,0,0,0,6.26,6.26H303.3a17.84,17.84,0,0,0,28.23,0h11.63a6.26,6.26,0,0,0,6.26-6.26V85.64A6.27,6.27,0,0,0,343.16,79.38Zm-19-3.3h13.3v3.3h-13.3v-3.3Zm-6.69,47.84a13.86,13.86,0,1,1,13.86-13.86A13.87,13.87,0,0,1,317.42,123.92ZM343.16,117h-9.27a17.87,17.87,0,1,0-32.95,0h-9.27a2.25,2.25,0,0,1-2.24-2.24V89.24h41.33a1.34,1.34,0,1,0,0-2.68H289.43V85.64a2.25,2.25,0,0,1,2.24-2.24h51.48a2.24,2.24,0,0,1,2.24,2.24v0.92h-7.12a1.34,1.34,0,1,0,0,2.68h7.12v25.51A2.24,2.24,0,0,1,343.16,117Z"/><path class="cls-2" d="M326.88,106.18a1.34,1.34,0,0,0-2.48,1,7.54,7.54,0,1,1-4-4.09,1.34,1.34,0,1,0,1-2.47A10.21,10.21,0,1,0,326.88,106.18Z"/><circle class="cls-2" cx="317.42" cy="110.06" r="3.67"/><path class="cls-2" d="M527.82,72H524V69.34a1.34,1.34,0,1,0-2.68,0V72H517.6V69.34a1.34,1.34,0,1,0-2.68,0V72H511.2V69.34a1.34,1.34,0,1,0-2.68,0V72h-3.72V69.34a1.34,1.34,0,1,0-2.68,0V72h-3.72V69.34a1.34,1.34,0,1,0-2.68,0V72H492V69.34a1.34,1.34,0,1,0-2.68,0V72h-3.81a4,4,0,0,0-4,4V128a4,4,0,0,0,4,4h42.35a4,4,0,0,0,4-4V76A4,4,0,0,0,527.82,72Zm-42.35,56V85.91H514.3a1.34,1.34,0,1,0,0-2.68H485.48V76h3.81v2.77a1.34,1.34,0,0,0,2.68,0V76h3.72v2.77a1.34,1.34,0,0,0,2.68,0V76h3.72v2.77a1.34,1.34,0,0,0,2.68,0V76h3.72v2.77a1.34,1.34,0,0,0,2.68,0V76h3.72v2.77a1.34,1.34,0,0,0,2.68,0V76h3.72v2.77a1.34,1.34,0,0,0,2.68,0V76h3.81v7.18h-6a1.34,1.34,0,1,0,0,2.68h6V128H485.48Z"/><path class="cls-2" d="M521.16,94.78H504.82a1.34,1.34,0,1,0,0,2.68h16.34A1.34,1.34,0,1,0,521.16,94.78Z"/><path class="cls-2" d="M497.28,94.78h-5.13a1.34,1.34,0,1,0,0,2.68h5.13A1.34,1.34,0,1,0,497.28,94.78Z"/><path class="cls-2" d="M521.16,101.83H504.82a1.34,1.34,0,1,0,0,2.68h16.34A1.34,1.34,0,1,0,521.16,101.83Z"/><path class="cls-2" d="M497.28,101.83h-5.13a1.34,1.34,0,1,0,0,2.68h5.13A1.34,1.34,0,1,0,497.28,101.83Z"/><path class="cls-2" d="M521.16,109.2H504.82a1.34,1.34,0,1,0,0,2.68h16.34A1.34,1.34,0,1,0,521.16,109.2Z"/><path class="cls-2" d="M497.28,109.2h-5.13a1.34,1.34,0,1,0,0,2.68h5.13A1.34,1.34,0,1,0,497.28,109.2Z"/><path class="cls-2" d="M521.16,117H504.82a1.34,1.34,0,1,0,0,2.68h16.34A1.34,1.34,0,1,0,521.16,117Z"/><path class="cls-2" d="M497.28,117h-5.13a1.34,1.34,0,1,0,0,2.68h5.13A1.34,1.34,0,1,0,497.28,117Z"/><path class="cls-2" d="M677.93,92.35a2,2,0,0,0,2-2V88.77c0.7-1,6.15-3.23,16.37-3.23s15.67,2.23,16.37,3.23v1.57a2,2,0,0,0,4,0v-1.7c0-5.17-10.84-6.85-18.47-7.08V79.67a6,6,0,1,0-4,0v1.89c-7.62.26-18.29,2-18.29,7.08v1.7A2,2,0,0,0,677.93,92.35ZM696.22,72a2,2,0,1,1-2,2A2,2,0,0,1,696.22,72Z"/><path class="cls-2" d="M687.22,112.54a4,4,0,0,0,2.75-3.81v-4.19a4,4,0,0,0-4-4h-0.12l-7-6.38-0.06,0L678.66,94,678.55,94l-0.12-.06-0.12,0-0.12,0-0.13,0H677.8l-0.13,0-0.13,0-0.12,0-0.12.06L677.2,94l-0.11.08-0.06,0-7,6.38h-0.12a4,4,0,0,0-4,4v4.19a4,4,0,0,0,2.75,3.81A10,10,0,0,0,687.22,112.54Zm-9.29-15.6,3.93,3.58H674Zm0,17.81a6,6,0,0,1-5.48-3.53h5.66a1.34,1.34,0,1,0,0-2.68h-8l-0.17,0v-4h16v4l-0.18,0h-3.16a1.34,1.34,0,0,0,0,2.68h0.8A6,6,0,0,1,677.93,114.76Z"/><path class="cls-2" d="M722.6,100.52l-7-6.38-0.06,0L715.42,94,715.31,94l-0.12-.06-0.12,0-0.12,0-0.13,0h-0.25l-0.13,0-0.12,0-0.12,0-0.12.06L714,94l-0.11.08-0.06,0-7,6.38h-0.3a4,4,0,0,0-4,4v4.19a4,4,0,0,0,2.75,3.81,10,10,0,0,0,18.59,0,4,4,0,0,0,2.75-3.81v-4.19A4,4,0,0,0,722.6,100.52Zm-7.91-3.58,3.93,3.58h-7.85Zm-0.18,17.81a6,6,0,0,1-5.48-3.53h5.66a1.34,1.34,0,0,0,0-2.68h-8l-0.17,0v-4h16v4l-0.18,0h-3.16a1.34,1.34,0,0,0,0,2.68H720A6,6,0,0,1,714.51,114.76Z"/><path class="cls-2" d="M704,121.47h-5.8v-32a2,2,0,0,0-4,0v32H688.6a4,4,0,0,0-4,4V128a4,4,0,0,0,4,4H704a4,4,0,0,0,4-4v-2.49A4,4,0,0,0,704,121.47Zm0,6.51H688.6v-2.49H704V128Z"/><path class="cls-2" d="M444.93,102H382.67a2,2,0,0,1,0-4h62.27A2,2,0,0,1,444.93,102Z"/><polygon class="cls-2" points="448.63 100 432.57 109.27 432.57 90.73 448.63 100"/><path class="cls-2" d="M432.57,109.77a0.5,0.5,0,0,1-.5-0.5V90.73a0.5,0.5,0,0,1,.75-0.43l16.06,9.27a0.5,0.5,0,0,1,0,.87l-16.06,9.27A0.5,0.5,0,0,1,432.57,109.77Zm0.5-18.18v16.81L447.63,100Z"/><path class="cls-2" d="M248.89,102H186.63a2,2,0,0,1,0-4h62.27A2,2,0,0,1,248.89,102Z"/><polygon class="cls-2" points="252.59 100 236.53 109.27 236.53 90.73 252.59 100"/><path class="cls-2" d="M236.53,109.77a0.5,0.5,0,0,1-.5-0.5V90.73a0.5,0.5,0,0,1,.75-0.43l16.06,9.27a0.5,0.5,0,0,1,0,.87l-16.06,9.27A0.5,0.5,0,0,1,236.53,109.77ZM237,91.59v16.81L251.59,100Z"/><path class="cls-2" d="M628.65,102H566.39a2,2,0,0,1,0-4h62.27A2,2,0,0,1,628.65,102Z"/><polygon class="cls-2" points="632.35 100 616.29 109.27 616.29 90.73 632.35 100"/><path class="cls-2" d="M616.29,109.77a0.5,0.5,0,0,1-.5-0.5V90.73a0.5,0.5,0,0,1,.75-0.43l16.06,9.27a0.5,0.5,0,0,1,0,.87l-16.06,9.27A0.5,0.5,0,0,1,616.29,109.77Zm0.5-18.18v16.81L631.35,100Z"/><path class="cls-2" d="M154.17,96.64c-0.58-1.81-1.08-3.41-1.55-4.9-1.47-4.65-2.62-8.33-4.68-14-0.66-1.81-2.76-2.23-5.92-1.18l-3,1c-2.48.81-3.73,1.21-7.58,2.62a1.33,1.33,0,0,1-1.06,0c-4.92-2.51-8.94-4.52-12.64-6.35a10.38,10.38,0,0,0-7-.67c-0.7.15-1.39,0.32-2.09,0.49-1.11.27-2.26,0.55-3.4,0.74A55.56,55.56,0,0,0,92,78a0.93,0.93,0,0,1-.64,0c-1.91-1-3-1.5-4.13-2-0.88-.41-1.75-0.81-3-1.44a3.54,3.54,0,0,0-4.79,1.15,129.32,129.32,0,0,0-9.09,15.58L70,91.92c-1,1.79-1.67,3.08.82,5.6,4.76,4.83,7.68,6.9,13,10.68,0.31,0.22.33,0.27,0.23,0.56a5,5,0,0,0,.82,4.84,8.36,8.36,0,0,0,3.29,2.59,1.48,1.48,0,0,1,.88,1c0.88,2.63,2.77,4.05,5.18,3.88a1.14,1.14,0,0,1,1.35.72,5,5,0,0,0,6.16,2.62,0.79,0.79,0,0,1,.33.18,8,8,0,0,0,4.29,2.16,4,4,0,0,0,4.54-2.33c0.05-.13.1-0.26,0.15-0.39l0,0c0.37,0.25.72,0.49,1.05,0.74a11.15,11.15,0,0,0,4.63,2.24,6.69,6.69,0,0,0,1.3.13,4.46,4.46,0,0,0,4-2.17,0.78,0.78,0,0,1,.81-0.43,6.27,6.27,0,0,0,6.19-4.33,0.69,0.69,0,0,1,.36-0.21c3.14-.55,5.08-2.27,5.78-5.12a0.48,0.48,0,0,1,.06-0.16,1.57,1.57,0,0,1,.38,0,5.31,5.31,0,0,0,2.56-.78,6.4,6.4,0,0,0,3.1-5.37,0.48,0.48,0,0,1,.36-0.51,64.7,64.7,0,0,0,6.64-3.81c1.27-.8,2.58-1.63,4.32-2.64A4.18,4.18,0,0,0,154.17,96.64Zm-32.36,5.29a1.82,1.82,0,0,0,0,2.47,6.68,6.68,0,0,0,.57.54l2.05,1.86q3.48,3.16,7,6.31a0.67,0.67,0,0,1,.29.79,3,3,0,0,1-3,2.53,1,1,0,0,1-.43-0.27q-3.42-3.25-6.83-6.51l-2.13-2a5,5,0,0,0-.5-0.44,1.81,1.81,0,0,0-2.48,2.6c0.37,0.46.71,0.87,1.1,1.28s1.42,1.33,2.49,2.25c1.89,1.63,5.81,5,5.63,5.92a2.14,2.14,0,0,1-1.11,1.31c-0.84.59-1.22,0.55-2-.24l-0.63-.59q-3.44-3.27-6.89-6.52a2.71,2.71,0,0,0-1.05-.68,2,2,0,0,0-.55-0.08,1.67,1.67,0,0,0-1.47.89,2.05,2.05,0,0,0-.24.59,5.19,5.19,0,0,0-.75-1.4,3.67,3.67,0,0,0-2.62-1.29,1.2,1.2,0,0,1-.7-0.45c-1.44-2.55-3.38-3.69-5.93-3.48a5.05,5.05,0,0,0-2.9-3.15c-1.35-.46-3-0.15-4.76.91a5.69,5.69,0,0,0-4-1.85A5.33,5.33,0,0,0,86,105.27c-4.19-3-10-8.1-12.29-10a1.72,1.72,0,0,1-.41-2.09c1.5-2.94,5.22-9.23,8.28-14a1.64,1.64,0,0,1,2.1-.58c0.83,0.38,1.65.71,2.46,1a27.25,27.25,0,0,1,4.05,1.88,2.88,2.88,0,0,0,3,.06,33.61,33.61,0,0,1,8-2.67c-1.14,1.23-2.31,2.51-3.41,3.81a6.06,6.06,0,0,0-.92,1.72,4.86,4.86,0,0,0,0,4.14A5.32,5.32,0,0,0,100.61,91a7.74,7.74,0,0,0,5-.7,28.14,28.14,0,0,0,4.61-2.64,5.33,5.33,0,0,1,2.77-1h0.16c0.9-.06.9-0.06,1.27,0.85,1.51,3.72,4.49,6.69,9.36,9.35a17,17,0,0,0,2.25,1l0.37,0.14a2.8,2.8,0,0,1,1,.63c3.64,3.61,6.9,6.88,10,10a0.82,0.82,0,0,1,.18.56,2.38,2.38,0,0,1-1,1.6,2.52,2.52,0,0,1-1.93.39,1.45,1.45,0,0,1-.45-0.32l-6.54-5.92-2.63-2.38c-0.27-.25-0.55-0.51-0.85-0.73A1.81,1.81,0,0,0,121.81,101.93Zm-10,13.31a2.29,2.29,0,0,0,.29.34l3.16,3,0.79,0.75,2.8,2.65L119,122.1c0.34,0.31.34,0.34,0.25,0.55a1.09,1.09,0,0,1-1,.86,4.63,4.63,0,0,1-2.79-.83c-1.12-.73-2.31-1.56-3.75-2.63a0.71,0.71,0,0,1-.16-0.43,17.16,17.16,0,0,1,.14-1.8A13,13,0,0,0,111.81,115.24ZM100.3,121A1.08,1.08,0,0,1,99,120.5a3.94,3.94,0,0,1-1-3.79,15,15,0,0,1,3.15-5.56,1.2,1.2,0,0,1,.87-0.29,1.61,1.61,0,0,1,.8.2,4.78,4.78,0,0,1,.7.55C100.4,114.21,100.17,117.77,100.3,121ZM87.75,109.2a9.23,9.23,0,0,1,.95-1.52,1.82,1.82,0,0,1,1.24-.85h0a1.71,1.71,0,0,1,1.13.65,13.4,13.4,0,0,0-2.41,4.82A2.15,2.15,0,0,1,87.75,109.2Zm4.93,7.37a4.77,4.77,0,0,1-.41-3.67,8.27,8.27,0,0,1,4.12-5.07,2,2,0,0,1,.86-0.28,0.58,0.58,0,0,1,.25.05,2,2,0,0,1,.7,1.41,1.9,1.9,0,0,1-.26.39A17.37,17.37,0,0,0,94.54,116c-0.09.39-.15,0.79-0.21,1.19l0,0.22A1.31,1.31,0,0,1,92.68,116.56Zm12-.75a1.84,1.84,0,0,1,1.52-1.34h0.06a1.92,1.92,0,0,1,1.58,1.4,5.37,5.37,0,0,1,.27.75h0L108,118.51c-0.09,1.33-.18,2.67-0.29,4a0.74,0.74,0,0,1-.27.51,0.59,0.59,0,0,1-.46.14,4.16,4.16,0,0,1-2.92-1.79,0.35,0.35,0,0,1-.07-0.17A9.13,9.13,0,0,1,104.71,115.81Zm15.48-26.1a11.07,11.07,0,0,1-2.89-5.22,2.18,2.18,0,0,0-2.11-1.7H115l-1.08.11c-1.07.11-2.14,0.22-3.2,0.37a3.74,3.74,0,0,0-1.56.68A18.9,18.9,0,0,1,104,87a4.79,4.79,0,0,1-2.9.35,1.17,1.17,0,0,1-.78-0.63,1.36,1.36,0,0,1,0-1.15,5.9,5.9,0,0,1,1.13-1.77l1.08-1.09a40.9,40.9,0,0,1,4.66-4.27,8.79,8.79,0,0,1,9.28-1.24c3.59,1.69,7.18,3.55,10.65,5.36l2.27,1.18a3,3,0,0,0,2.51.11c2.26-.91,3.77-1.37,5.37-1.85s3.06-.93,5.28-1.81l0.91-.35a1.15,1.15,0,0,1,.89,0,1.13,1.13,0,0,1,.6.65C147,86.2,150,95.48,150.5,98a0.57,0.57,0,0,1-.15.53C149,99.87,143.69,103,139.59,105a0.59,0.59,0,0,1-.68-0.12c-3.05-3.09-6.18-6.22-9.3-9.3a4.23,4.23,0,0,0-1.48-.94A21.09,21.09,0,0,1,120.19,89.71Z"/></svg>