<svg id="Layer_1" data-name="Layer 1" xmlns="http://www.w3.org/2000/svg" viewBox="0 0 73.82 72"><defs><style>.cls-1{fill:#0096d7;fill-rule:evenodd;}</style></defs><title>GitHub</title><path class="cls-1" d="M36.91,0A36.91,36.91,0,0,0,25.24,71.94c1.85,0.34,2.52-.8,2.52-1.78s0-3.2,0-6.28c-10.27,2.23-12.43-4.95-12.43-4.95-1.68-4.26-4.1-5.4-4.1-5.4-3.35-2.29.25-2.24,0.25-2.24,3.7,0.26,5.65,3.8,5.65,3.8,3.29,5.64,8.64,4,10.74,3.07a7.89,7.89,0,0,1,2.34-4.93C22,52.29,13.36,49.13,13.36,35a14.27,14.27,0,0,1,3.8-9.9,13.28,13.28,0,0,1,.36-9.77s3.1-1,10.15,3.78a35,35,0,0,1,18.48,0c7-4.78,10.14-3.78,10.14-3.78a13.26,13.26,0,0,1,.37,9.77A14.24,14.24,0,0,1,60.46,35c0,14.18-8.63,17.3-16.85,18.21,1.33,1.14,2.51,3.39,2.51,6.84,0,4.93,0,8.92,0,10.13,0,1,.66,2.14,2.54,1.77A36.92,36.92,0,0,0,36.91,0Z"/></svg>