<svg id="Layer_1" data-name="Layer 1" xmlns="http://www.w3.org/2000/svg" viewBox="0 0 72 72"><defs><style>.cls-1{fill:#ffffff;}</style></defs><title>socialMedia</title><path id="linkedin-circle-icon" class="cls-1" d="M36,0A36,36,0,1,0,72,36,36,36,0,0,0,36,0Zm-9.6,53.4h-7.9V27.87h7.9V53.4Zm-4-28.88a4.71,4.71,0,1,1,4.67-4.71A4.69,4.69,0,0,1,22.4,24.52ZM56,53.4H48.15V40c0-3.68-1.4-5.73-4.3-5.73C40.68,34.27,39,36.41,39,40V53.4H31.45V27.87H39v3.44a8.91,8.91,0,0,1,7.7-4.22c5.42,0,9.29,3.31,9.29,10.15V53.4Z"/></svg>