<svg id="Layer_1" data-name="Layer 1" xmlns="http://www.w3.org/2000/svg" viewBox="0 0 356.04 295.51"><defs><style>.cls-1{fill:#58595b;}</style></defs><title>Flow-grid</title><path class="cls-1" d="M306.76,38.17H305v-3.3a4,4,0,0,0-4-4h-13.3a4,4,0,0,0-4,4v3.3H255.28A6.27,6.27,0,0,0,249,44.43V73.54a6.26,6.26,0,0,0,6.26,6.26h11.63a17.84,17.84,0,0,0,28.23,0h11.63A6.26,6.26,0,0,0,313,73.54V44.43A6.27,6.27,0,0,0,306.76,38.17Zm-19-3.3H301v3.3h-13.3v-3.3ZM281,82.71a13.86,13.86,0,1,1,13.86-13.86A13.87,13.87,0,0,1,281,82.71Zm25.74-6.93h-9.27a17.87,17.87,0,1,0-32.95,0h-9.27A2.25,2.25,0,0,1,253,73.54V48h41.33a1.34,1.34,0,1,0,0-2.68H253V44.43a2.25,2.25,0,0,1,2.24-2.24h51.48A2.24,2.24,0,0,1,309,44.43v0.92h-7.12a1.34,1.34,0,1,0,0,2.68H309V73.54A2.24,2.24,0,0,1,306.76,75.78Z"/><path class="cls-1" d="M290.48,65A1.34,1.34,0,0,0,288,66a7.54,7.54,0,1,1-4-4.09,1.34,1.34,0,1,0,1-2.47A10.21,10.21,0,1,0,290.48,65Z"/><circle class="cls-1" cx="281.02" cy="68.85" r="3.67"/><path class="cls-1" d="M99.14,169.32H95.33v-2.67a1.34,1.34,0,1,0-2.68,0v2.67H88.92v-2.67a1.34,1.34,0,1,0-2.68,0v2.67H82.52v-2.67a1.34,1.34,0,1,0-2.68,0v2.67H76.11v-2.67a1.34,1.34,0,1,0-2.68,0v2.67H69.7v-2.67a1.34,1.34,0,1,0-2.68,0v2.67H63.29v-2.67a1.34,1.34,0,1,0-2.68,0v2.67H56.8a4,4,0,0,0-4,4v51.93a4,4,0,0,0,4,4H99.14a4,4,0,0,0,4-4V173.35A4,4,0,0,0,99.14,169.32Zm-42.35,56V183.22H85.61a1.34,1.34,0,1,0,0-2.68H56.8v-7.18h3.81v2.77a1.34,1.34,0,0,0,2.68,0v-2.77H67v2.77a1.34,1.34,0,1,0,2.68,0v-2.77h3.72v2.77a1.34,1.34,0,0,0,2.68,0v-2.77h3.72v2.77a1.34,1.34,0,1,0,2.68,0v-2.77h3.72v2.77a1.34,1.34,0,1,0,2.68,0v-2.77h3.72v2.77a1.34,1.34,0,1,0,2.68,0v-2.77h3.81v7.18h-6a1.34,1.34,0,1,0,0,2.68h6v42.07H56.8Z"/><path class="cls-1" d="M92.48,192.09H76.14a1.34,1.34,0,1,0,0,2.68H92.48A1.34,1.34,0,1,0,92.48,192.09Z"/><path class="cls-1" d="M68.6,192.09H63.46a1.34,1.34,0,1,0,0,2.68H68.6A1.34,1.34,0,1,0,68.6,192.09Z"/><path class="cls-1" d="M92.48,199.14H76.14a1.34,1.34,0,1,0,0,2.68H92.48A1.34,1.34,0,1,0,92.48,199.14Z"/><path class="cls-1" d="M68.6,199.14H63.46a1.34,1.34,0,1,0,0,2.68H68.6A1.34,1.34,0,1,0,68.6,199.14Z"/><path class="cls-1" d="M92.48,206.51H76.14a1.34,1.34,0,1,0,0,2.68H92.48A1.34,1.34,0,1,0,92.48,206.51Z"/><path class="cls-1" d="M68.6,206.51H63.46a1.34,1.34,0,1,0,0,2.68H68.6A1.34,1.34,0,1,0,68.6,206.51Z"/><path class="cls-1" d="M92.48,214.32H76.14a1.34,1.34,0,0,0,0,2.68H92.48A1.34,1.34,0,1,0,92.48,214.32Z"/><path class="cls-1" d="M68.6,214.32H63.46a1.34,1.34,0,1,0,0,2.68H68.6A1.34,1.34,0,0,0,68.6,214.32Z"/><path class="cls-1" d="M262.73,190a2,2,0,0,0,2-2v-1.57c0.7-1,6.15-3.23,16.37-3.23s15.67,2.23,16.37,3.23V188a2,2,0,0,0,4,0v-1.7c0-5.17-10.84-6.85-18.47-7.08v-1.88a6,6,0,1,0-4,0v1.89c-7.62.26-18.29,2-18.29,7.08V188A2,2,0,0,0,262.73,190ZM281,169.7a2,2,0,1,1-2,2A2,2,0,0,1,281,169.7Z"/><path class="cls-1" d="M272,210.23a4,4,0,0,0,2.75-3.81v-4.19a4,4,0,0,0-4-4h-0.12l-7-6.38-0.06,0-0.11-.08-0.11-.06-0.12-.06-0.12,0-0.12,0-0.13,0H262.6l-0.13,0-0.13,0-0.12,0-0.12.06-0.11.06-0.11.08-0.06,0-7,6.38h-0.12a4,4,0,0,0-4,4v4.19a4,4,0,0,0,2.75,3.81A10,10,0,0,0,272,210.23Zm-9.29-15.6,3.93,3.58H258.8Zm0,17.81a6,6,0,0,1-5.48-3.53h5.66a1.34,1.34,0,1,0,0-2.68h-8l-0.17,0v-4h16v4l-0.18,0h-3.16a1.34,1.34,0,0,0,0,2.68h0.8A6,6,0,0,1,262.73,212.44Z"/><path class="cls-1" d="M307.4,198.21l-7-6.38-0.06,0-0.11-.08-0.11-.06-0.12-.06-0.12,0-0.12,0-0.13,0h-0.25l-0.13,0-0.12,0-0.12,0-0.12.06-0.11.06-0.11.08-0.06,0-7,6.38h-0.3a4,4,0,0,0-4,4v4.19a4,4,0,0,0,2.75,3.81,10,10,0,0,0,18.59,0,4,4,0,0,0,2.75-3.81v-4.19A4,4,0,0,0,307.4,198.21Zm-7.91-3.58,3.93,3.58h-7.85Zm-0.18,17.81a6,6,0,0,1-5.48-3.53h5.66a1.34,1.34,0,0,0,0-2.68h-8l-0.17,0v-4h16v4l-0.18,0H304a1.34,1.34,0,0,0,0,2.68h0.8A6,6,0,0,1,299.31,212.44Z"/><path class="cls-1" d="M288.82,219.16H283v-32a2,2,0,0,0-4,0v32H273.4a4,4,0,0,0-4,4v2.49a4,4,0,0,0,4,4h15.43a4,4,0,0,0,4-4v-2.49A4,4,0,0,0,288.82,219.16Zm0,6.51H273.4v-2.49h15.43v2.49Z"/><path class="cls-1" d="M211.06,59.63H148.79a2,2,0,0,1,0-4h62.27A2,2,0,0,1,211.06,59.63Z"/><polygon class="cls-1" points="214.76 57.63 198.7 66.9 198.7 48.36 214.76 57.63"/><path class="cls-1" d="M198.7,67.4a0.5,0.5,0,0,1-.5-0.5V48.36a0.5,0.5,0,0,1,.75-0.43L215,57.2a0.5,0.5,0,0,1,0,.87l-16.06,9.27A0.5,0.5,0,0,1,198.7,67.4Zm0.5-18.18V66l14.56-8.41Z"/><path class="cls-1" d="M211.06,198.53H148.79a2,2,0,0,1,0-4h62.27A2,2,0,0,1,211.06,198.53Z"/><polygon class="cls-1" points="214.76 196.53 198.7 205.8 198.7 187.26 214.76 196.53"/><path class="cls-1" d="M198.7,206.3a0.5,0.5,0,0,1-.5-0.5V187.26a0.5,0.5,0,0,1,.75-0.43L215,196.1a0.5,0.5,0,0,1,0,.87l-16.06,9.27A0.5,0.5,0,0,1,198.7,206.3Zm0.5-18.18v16.81l14.56-8.41Z"/><path class="cls-1" d="M120.38,55.05c-0.58-1.81-1.08-3.41-1.55-4.9-1.47-4.65-2.62-8.33-4.68-14-0.66-1.81-2.76-2.23-5.92-1.18l-3,1c-2.48.81-3.73,1.21-7.58,2.62a1.33,1.33,0,0,1-1.06,0C91.68,36.05,87.66,34,84,32.21a10.38,10.38,0,0,0-7-.67c-0.7.15-1.39,0.32-2.09,0.49-1.11.27-2.26,0.55-3.4,0.74A55.56,55.56,0,0,0,58.22,36.4a0.93,0.93,0,0,1-.64,0c-1.91-1-3-1.5-4.13-2-0.88-.41-1.75-0.81-3-1.44a3.54,3.54,0,0,0-4.79,1.15,129.32,129.32,0,0,0-9.09,15.58l-0.35.66c-1,1.79-1.67,3.08.82,5.6,4.76,4.83,7.68,6.9,13,10.68,0.31,0.22.33,0.27,0.23,0.56A5,5,0,0,0,51.06,72a8.36,8.36,0,0,0,3.29,2.59,1.48,1.48,0,0,1,.88,1c0.88,2.63,2.77,4.05,5.18,3.88a1.14,1.14,0,0,1,1.35.72,5,5,0,0,0,6.16,2.62,0.79,0.79,0,0,1,.33.18,8,8,0,0,0,4.29,2.16,4,4,0,0,0,4.54-2.33c0.05-.13.1-0.26,0.15-0.39l0,0c0.37,0.25.72,0.49,1.05,0.74A11.15,11.15,0,0,0,83,85.46a6.69,6.69,0,0,0,1.3.13,4.46,4.46,0,0,0,4-2.17A0.78,0.78,0,0,1,89.08,83a6.27,6.27,0,0,0,6.19-4.33,0.69,0.69,0,0,1,.36-0.21c3.14-.55,5.08-2.27,5.78-5.12a0.48,0.48,0,0,1,.06-0.16,1.57,1.57,0,0,1,.38,0,5.31,5.31,0,0,0,2.56-.78,6.4,6.4,0,0,0,3.1-5.37,0.48,0.48,0,0,1,.36-0.51,64.7,64.7,0,0,0,6.64-3.81c1.27-.8,2.58-1.63,4.32-2.64A4.18,4.18,0,0,0,120.38,55.05ZM88,60.34a1.82,1.82,0,0,0,0,2.47,6.68,6.68,0,0,0,.57.54l2.05,1.86q3.48,3.16,7,6.31a0.67,0.67,0,0,1,.29.79,3,3,0,0,1-3,2.53,1,1,0,0,1-.43-0.27Q91,71.33,87.6,68.06l-2.13-2a5,5,0,0,0-.5-0.44,1.81,1.81,0,0,0-2.48,2.6c0.37,0.46.71,0.87,1.1,1.28s1.42,1.33,2.49,2.25c1.89,1.63,5.81,5,5.63,5.92a2.14,2.14,0,0,1-1.11,1.31c-0.84.59-1.22,0.55-2-.24l-0.63-.59Q84.49,74.85,81,71.59A2.71,2.71,0,0,0,80,70.91a2,2,0,0,0-.55-0.08,1.67,1.67,0,0,0-1.47.89,2.05,2.05,0,0,0-.24.59,5.19,5.19,0,0,0-.75-1.4,3.67,3.67,0,0,0-2.62-1.29,1.2,1.2,0,0,1-.7-0.45c-1.44-2.55-3.38-3.69-5.93-3.48a5.05,5.05,0,0,0-2.9-3.15c-1.35-.46-3-0.15-4.76.91a5.69,5.69,0,0,0-4-1.85,5.33,5.33,0,0,0-3.87,2.09c-4.19-3-10-8.1-12.29-10a1.72,1.72,0,0,1-.41-2.09c1.5-2.94,5.22-9.23,8.28-14a1.64,1.64,0,0,1,2.1-.58c0.83,0.38,1.65.71,2.46,1a27.25,27.25,0,0,1,4.05,1.88,2.88,2.88,0,0,0,3,.06,33.61,33.61,0,0,1,8-2.67c-1.14,1.23-2.31,2.51-3.41,3.81a6.06,6.06,0,0,0-.92,1.72,4.86,4.86,0,0,0,0,4.14,5.32,5.32,0,0,0,3.71,2.47,7.74,7.74,0,0,0,5-.7,28.14,28.14,0,0,0,4.61-2.64,5.33,5.33,0,0,1,2.77-1h0.16c0.9-.06.9-0.06,1.27,0.85,1.51,3.72,4.49,6.69,9.36,9.35a17,17,0,0,0,2.25,1l0.37,0.14a2.8,2.8,0,0,1,1,.63c3.64,3.61,6.9,6.88,10,10a0.82,0.82,0,0,1,.18.56,2.38,2.38,0,0,1-1,1.6,2.52,2.52,0,0,1-1.93.39,1.45,1.45,0,0,1-.45-0.32l-6.54-5.92-2.63-2.38c-0.27-.25-0.55-0.51-0.85-0.73A1.81,1.81,0,0,0,88,60.34ZM78,73.66a2.29,2.29,0,0,0,.29.34l3.16,3,0.79,0.75L85,80.4l0.13,0.12c0.34,0.31.34,0.34,0.25,0.55a1.09,1.09,0,0,1-1,.86,4.63,4.63,0,0,1-2.79-.83c-1.12-.73-2.31-1.56-3.75-2.63A0.71,0.71,0,0,1,77.76,78a17.16,17.16,0,0,1,.14-1.8A13,13,0,0,0,78,73.66ZM66.51,79.39a1.08,1.08,0,0,1-1.25-.49,3.94,3.94,0,0,1-1-3.79,15,15,0,0,1,3.15-5.56,1.2,1.2,0,0,1,.87-0.29,1.61,1.61,0,0,1,.8.2,4.78,4.78,0,0,1,.7.55C66.61,72.62,66.38,76.18,66.51,79.39ZM54,67.61a9.23,9.23,0,0,1,.95-1.52,1.82,1.82,0,0,1,1.24-.85h0a1.71,1.71,0,0,1,1.13.65,13.4,13.4,0,0,0-2.41,4.82A2.15,2.15,0,0,1,54,67.61ZM58.89,75a4.77,4.77,0,0,1-.41-3.67,8.27,8.27,0,0,1,4.12-5.07A2,2,0,0,1,63.46,66a0.58,0.58,0,0,1,.25.05,2,2,0,0,1,.7,1.41,1.9,1.9,0,0,1-.26.39,17.37,17.37,0,0,0-3.41,6.61c-0.09.39-.15,0.79-0.21,1.19l0,0.22A1.31,1.31,0,0,1,58.89,75Zm12-.75a1.84,1.84,0,0,1,1.52-1.34h0.06a1.92,1.92,0,0,1,1.58,1.4,5.37,5.37,0,0,1,.27.75h0l-0.13,1.89c-0.09,1.33-.18,2.67-0.29,4a0.74,0.74,0,0,1-.27.51,0.59,0.59,0,0,1-.46.14,4.16,4.16,0,0,1-2.92-1.79,0.35,0.35,0,0,1-.07-0.17A9.13,9.13,0,0,1,70.92,74.22ZM86.4,48.12A11.07,11.07,0,0,1,83.5,42.9a2.18,2.18,0,0,0-2.11-1.7H81.17l-1.08.11c-1.07.11-2.14,0.22-3.2,0.37a3.74,3.74,0,0,0-1.56.68,18.9,18.9,0,0,1-5.1,3.06,4.79,4.79,0,0,1-2.9.35,1.17,1.17,0,0,1-.78-0.63,1.36,1.36,0,0,1,0-1.15,5.9,5.9,0,0,1,1.13-1.77l1.08-1.09a40.9,40.9,0,0,1,4.66-4.27,8.79,8.79,0,0,1,9.28-1.24c3.59,1.69,7.18,3.55,10.65,5.36l2.27,1.18a3,3,0,0,0,2.51.11c2.26-.91,3.77-1.37,5.37-1.85s3.06-.93,5.28-1.81l0.91-.35a1.15,1.15,0,0,1,.89,0,1.13,1.13,0,0,1,.6.65c2.05,5.66,5,14.94,5.55,17.43a0.57,0.57,0,0,1-.15.53c-1.38,1.37-6.66,4.46-10.75,6.53a0.59,0.59,0,0,1-.68-0.12c-3.05-3.09-6.18-6.22-9.3-9.3a4.23,4.23,0,0,0-1.48-.94A21.09,21.09,0,0,1,86.4,48.12Z"/><path class="cls-1" d="M247.24,118.63a6.4,6.4,0,0,1-1.77,4.87,7.1,7.1,0,0,1-5.09,1.68h-3.59V112.32h4a6.57,6.57,0,0,1,4.77,1.65A6.17,6.17,0,0,1,247.24,118.63Zm-2.21.07q0-4.61-4.32-4.61h-1.82v9.33h1.49Q245,123.41,245,118.7Z"/><path class="cls-1" d="M258.4,120.3a5.31,5.31,0,0,1-1.22,3.72,4.38,4.38,0,0,1-3.4,1.34,4.66,4.66,0,0,1-2.41-.62,4.06,4.06,0,0,1-1.61-1.77,6,6,0,0,1-.56-2.67,5.27,5.27,0,0,1,1.21-3.69,4.4,4.4,0,0,1,3.42-1.33,4.28,4.28,0,0,1,3.34,1.36A5.24,5.24,0,0,1,258.4,120.3Zm-7.08,0q0,3.37,2.49,3.37t2.46-3.37q0-3.33-2.48-3.33a2.11,2.11,0,0,0-1.89.86A4.38,4.38,0,0,0,251.32,120.3Z"/><path class="cls-1" d="M264.69,125.35a4.26,4.26,0,0,1-3.35-1.29,6.53,6.53,0,0,1,.05-7.47,4.45,4.45,0,0,1,3.47-1.32,6.5,6.5,0,0,1,2.77.57L267,117.51a6.26,6.26,0,0,0-2.16-.51q-2.52,0-2.52,3.35a4,4,0,0,0,.63,2.46,2.17,2.17,0,0,0,1.84.82,5.28,5.28,0,0,0,2.61-.69v1.8a4.09,4.09,0,0,1-1.18.47A7.1,7.1,0,0,1,264.69,125.35Z"/><path class="cls-1" d="M276.54,125.17l-0.29-1.27h-0.11a2.94,2.94,0,0,1-1.23,1.06,4.1,4.1,0,0,1-1.82.39,3.56,3.56,0,0,1-2.64-.88,3.64,3.64,0,0,1-.87-2.66v-6.35h2.08v6a2.6,2.6,0,0,0,.46,1.67,1.74,1.74,0,0,0,1.43.56,2.28,2.28,0,0,0,1.91-.78,4.3,4.3,0,0,0,.61-2.61v-4.84h2.07v9.72h-1.63Z"/><path class="cls-1" d="M289.3,125.17h-2.07v-6a2.72,2.72,0,0,0-.42-1.67,1.56,1.56,0,0,0-1.32-.55,2,2,0,0,0-1.75.78,4.56,4.56,0,0,0-.56,2.59v4.84h-2.07v-9.72h1.62l0.29,1.27h0.11a2.69,2.69,0,0,1,1.17-1.07,3.79,3.79,0,0,1,1.69-.38,3,3,0,0,1,3,1.53h0.14a3,3,0,0,1,1.21-1.12,3.85,3.85,0,0,1,1.79-.4,3.27,3.27,0,0,1,2.54.88,3.9,3.9,0,0,1,.79,2.68v6.34h-2.07v-6a2.7,2.7,0,0,0-.43-1.67,1.57,1.57,0,0,0-1.32-.55,2,2,0,0,0-1.76.75,3.86,3.86,0,0,0-.56,2.31v5.15Z"/><path class="cls-1" d="M302.57,125.35A4.7,4.7,0,0,1,299,124a5,5,0,0,1-1.28-3.64,5.51,5.51,0,0,1,1.19-3.74,4.1,4.1,0,0,1,3.26-1.36,4,4,0,0,1,3,1.17,4.47,4.47,0,0,1,1.12,3.22v1.12h-6.48a3.19,3.19,0,0,0,.76,2.18,2.66,2.66,0,0,0,2,.76,7.49,7.49,0,0,0,1.6-.16,8.42,8.42,0,0,0,1.6-.54v1.68a6.34,6.34,0,0,1-1.53.51A9.38,9.38,0,0,1,302.57,125.35Zm-0.38-8.51a2.08,2.08,0,0,0-1.58.62,3,3,0,0,0-.71,1.82h4.41a2.69,2.69,0,0,0-.58-1.82A2,2,0,0,0,302.19,116.84Z"/><path class="cls-1" d="M317.24,125.17h-2.07v-6a2.62,2.62,0,0,0-.45-1.68,1.75,1.75,0,0,0-1.44-.55,2.28,2.28,0,0,0-1.92.77,4.27,4.27,0,0,0-.61,2.59v4.84h-2.07v-9.72h1.62l0.29,1.27h0.11a2.88,2.88,0,0,1,1.25-1.07,4.18,4.18,0,0,1,1.79-.38q3.5,0,3.5,3.56v6.34Z"/><path class="cls-1" d="M323.74,123.68a5,5,0,0,0,1.51-.24V125a4.18,4.18,0,0,1-.88.25,6.1,6.1,0,0,1-1.12.1q-2.94,0-2.94-3.09V117H319V116.1l1.42-.76,0.7-2.06h1.27v2.16h2.77V117h-2.77v5.2a1.46,1.46,0,0,0,.37,1.1A1.36,1.36,0,0,0,323.74,123.68Z"/><path class="cls-1" d="M34,264.11h-2.1v-11H28.15v-1.8h9.66v1.8H34v11Z"/><path class="cls-1" d="M45.64,264.11l-0.41-1.35H45.16A4,4,0,0,1,43.74,264a4.48,4.48,0,0,1-1.83.32,3.09,3.09,0,0,1-2.24-.77,2.89,2.89,0,0,1-.8-2.19A2.57,2.57,0,0,1,40,259.05a6.44,6.44,0,0,1,3.4-.83l1.68-.05v-0.52a2,2,0,0,0-.43-1.39,1.78,1.78,0,0,0-1.35-.46,4.66,4.66,0,0,0-1.43.22,10.81,10.81,0,0,0-1.32.52l-0.67-1.48a7.19,7.19,0,0,1,1.73-.63,8,8,0,0,1,1.78-.22,4.2,4.2,0,0,1,2.8.81,3.17,3.17,0,0,1,.95,2.54v6.55H45.64Zm-3.08-1.41a2.56,2.56,0,0,0,1.81-.63,2.28,2.28,0,0,0,.68-1.76v-0.84l-1.25.05a4.26,4.26,0,0,0-2.12.49,1.48,1.48,0,0,0-.66,1.33,1.3,1.3,0,0,0,.39,1A1.66,1.66,0,0,0,42.56,262.7Z"/><path class="cls-1" d="M52,259l1.17-1.46,2.94-3.13h2.38l-3.91,4.17,4.16,5.55H56.3l-3.12-4.26-1.13.93v3.33H50V250.43h2v6.67L51.94,259H52Z"/><path class="cls-1" d="M64.54,264.28A4.7,4.7,0,0,1,61,263a5,5,0,0,1-1.28-3.64,5.51,5.51,0,0,1,1.19-3.74,4.1,4.1,0,0,1,3.26-1.36,4,4,0,0,1,3,1.17,4.47,4.47,0,0,1,1.12,3.22v1.12H61.84a3.19,3.19,0,0,0,.76,2.18,2.66,2.66,0,0,0,2,.76,7.49,7.49,0,0,0,1.6-.16,8.42,8.42,0,0,0,1.6-.54v1.68a6.34,6.34,0,0,1-1.53.51A9.38,9.38,0,0,1,64.54,264.28Zm-0.38-8.51a2.08,2.08,0,0,0-1.58.62,3,3,0,0,0-.71,1.82h4.41a2.69,2.69,0,0,0-.58-1.82A2,2,0,0,0,64.16,255.77Z"/><path class="cls-1" d="M83.53,264.11l-1.28-3.57H77.33l-1.26,3.57H73.86l4.81-12.9H81l4.81,12.9H83.53Zm-1.84-5.38-1.2-3.5q-0.13-.35-0.37-1.11T79.8,253a19.7,19.7,0,0,1-.69,2.36l-1.16,3.35h3.74Z"/><path class="cls-1" d="M91.16,264.28A4.26,4.26,0,0,1,87.8,263a6.53,6.53,0,0,1,.05-7.47,4.45,4.45,0,0,1,3.47-1.32,6.5,6.5,0,0,1,2.77.57l-0.62,1.66a6.26,6.26,0,0,0-2.16-.51q-2.52,0-2.52,3.35a4,4,0,0,0,.63,2.46,2.17,2.17,0,0,0,1.84.82,5.28,5.28,0,0,0,2.61-.69v1.8a4.09,4.09,0,0,1-1.18.47A7.1,7.1,0,0,1,91.16,264.28Z"/><path class="cls-1" d="M99.77,262.61a5,5,0,0,0,1.51-.24v1.56a4.18,4.18,0,0,1-.88.25,6.1,6.1,0,0,1-1.12.1q-2.94,0-2.94-3.09v-5.24H95V255l1.42-.76,0.7-2.06h1.27v2.16h2.77v1.56H98.42v5.2a1.46,1.46,0,0,0,.37,1.1A1.36,1.36,0,0,0,99.77,262.61Z"/><path class="cls-1" d="M103.1,251.81a1.15,1.15,0,0,1,.3-0.85,1.18,1.18,0,0,1,.87-0.3,1.16,1.16,0,0,1,.85.3,1.15,1.15,0,0,1,.3.85,1.13,1.13,0,0,1-.3.83,1.15,1.15,0,0,1-.85.3,1.17,1.17,0,0,1-.87-0.3A1.13,1.13,0,0,1,103.1,251.81Zm2.19,12.3h-2.07v-9.72h2.07v9.72Z"/><path class="cls-1" d="M116.87,259.23a5.31,5.31,0,0,1-1.22,3.72,4.38,4.38,0,0,1-3.4,1.34,4.66,4.66,0,0,1-2.41-.62,4.06,4.06,0,0,1-1.61-1.77,6,6,0,0,1-.56-2.67,5.27,5.27,0,0,1,1.21-3.69,4.4,4.4,0,0,1,3.42-1.33,4.28,4.28,0,0,1,3.34,1.36A5.24,5.24,0,0,1,116.87,259.23Zm-7.08,0q0,3.37,2.49,3.37t2.46-3.37q0-3.33-2.48-3.33a2.11,2.11,0,0,0-1.89.86A4.38,4.38,0,0,0,109.79,259.23Z"/><path class="cls-1" d="M127.79,264.11h-2.07v-6a2.62,2.62,0,0,0-.45-1.68,1.75,1.75,0,0,0-1.44-.55,2.28,2.28,0,0,0-1.92.77,4.27,4.27,0,0,0-.61,2.59v4.84h-2.07v-9.72h1.62l0.29,1.27h0.11a2.88,2.88,0,0,1,1.25-1.07,4.18,4.18,0,0,1,1.79-.38q3.5,0,3.5,3.56v6.34Z"/><path class="cls-1" d="M265.17,261a3.23,3.23,0,0,1-1.24,2.69,5.39,5.39,0,0,1-3.42,1,8.16,8.16,0,0,1-3.57-.68v-2a9.72,9.72,0,0,0,1.87.65,7.93,7.93,0,0,0,1.84.24,2.93,2.93,0,0,0,1.84-.47,1.55,1.55,0,0,0,.59-1.27,1.6,1.6,0,0,0-.54-1.22,8.2,8.2,0,0,0-2.25-1.19,6,6,0,0,1-2.48-1.63,3.44,3.44,0,0,1-.72-2.2,3.08,3.08,0,0,1,1.14-2.53,4.74,4.74,0,0,1,3.07-.92,9,9,0,0,1,3.67.81L264.31,254a8,8,0,0,0-3.06-.72,2.35,2.35,0,0,0-1.55.44,1.46,1.46,0,0,0-.53,1.17,1.65,1.65,0,0,0,.21.86,2.16,2.16,0,0,0,.69.67,11.74,11.74,0,0,0,1.74.83,9.52,9.52,0,0,1,2.07,1.1,3.23,3.23,0,0,1,1,1.15A3.46,3.46,0,0,1,265.17,261Z"/><path class="cls-1" d="M276,264.48h-2.07v-6a2.62,2.62,0,0,0-.45-1.68,1.75,1.75,0,0,0-1.44-.55,2.28,2.28,0,0,0-1.91.78,4.29,4.29,0,0,0-.61,2.61v4.83h-2.07V250.81h2.07v3.47a16.2,16.2,0,0,1-.11,1.78h0.13a2.86,2.86,0,0,1,1.17-1.09,3.78,3.78,0,0,1,1.75-.39q3.53,0,3.53,3.56v6.34Z"/><path class="cls-1" d="M284.95,264.48l-0.41-1.35h-0.07a4,4,0,0,1-1.42,1.21,4.47,4.47,0,0,1-1.83.32,3.09,3.09,0,0,1-2.24-.77,2.89,2.89,0,0,1-.8-2.19,2.57,2.57,0,0,1,1.12-2.27,6.44,6.44,0,0,1,3.4-.83l1.68-.05V258a2,2,0,0,0-.43-1.39,1.78,1.78,0,0,0-1.35-.46,4.66,4.66,0,0,0-1.43.22,10.81,10.81,0,0,0-1.32.52l-0.67-1.48a7.19,7.19,0,0,1,1.73-.63,8,8,0,0,1,1.78-.21,4.2,4.2,0,0,1,2.8.81,3.17,3.17,0,0,1,.95,2.54v6.55h-1.48Zm-3.08-1.41a2.56,2.56,0,0,0,1.81-.63,2.28,2.28,0,0,0,.68-1.76v-0.84l-1.25.05a4.27,4.27,0,0,0-2.12.49,1.48,1.48,0,0,0-.66,1.33,1.3,1.3,0,0,0,.39,1A1.66,1.66,0,0,0,281.87,263.08Z"/><path class="cls-1" d="M294.24,254.59a5,5,0,0,1,1,.09l-0.2,1.92a3.9,3.9,0,0,0-.91-0.11,2.65,2.65,0,0,0-2,.81,2.92,2.92,0,0,0-.77,2.1v5.08h-2.07v-9.72h1.62l0.27,1.71h0.11a3.86,3.86,0,0,1,1.26-1.38A3,3,0,0,1,294.24,254.59Z"/><path class="cls-1" d="M301.31,264.66a4.7,4.7,0,0,1-3.55-1.32,5,5,0,0,1-1.28-3.64,5.51,5.51,0,0,1,1.19-3.74,4.1,4.1,0,0,1,3.26-1.36,4,4,0,0,1,3,1.17,4.47,4.47,0,0,1,1.12,3.22v1.12h-6.48a3.19,3.19,0,0,0,.76,2.17,2.66,2.66,0,0,0,2,.76,7.49,7.49,0,0,0,1.6-.16,8.41,8.41,0,0,0,1.6-.54V264a6.34,6.34,0,0,1-1.53.51A9.38,9.38,0,0,1,301.31,264.66Zm-0.38-8.51a2.08,2.08,0,0,0-1.58.62,3,3,0,0,0-.71,1.82h4.41a2.69,2.69,0,0,0-.58-1.82A2,2,0,0,0,300.93,256.15Z"/><path class="cls-1" d="M49,113.66a3.46,3.46,0,0,0-2.85,1.28,6.74,6.74,0,0,0,0,7.12A3.53,3.53,0,0,0,49,123.27a7.59,7.59,0,0,0,1.58-.16q0.76-.16,1.59-0.42v1.8a9.65,9.65,0,0,1-3.43.57,5.48,5.48,0,0,1-4.33-1.71,7.15,7.15,0,0,1-1.51-4.89,7.92,7.92,0,0,1,.73-3.51,5.24,5.24,0,0,1,2.12-2.3,6.42,6.42,0,0,1,3.26-.8,8.09,8.09,0,0,1,3.64.83l-0.76,1.75a11.25,11.25,0,0,0-1.38-.54A4.94,4.94,0,0,0,49,113.66Z"/><path class="cls-1" d="M63.37,120a5.3,5.3,0,0,1-1.22,3.72,4.38,4.38,0,0,1-3.4,1.34,4.66,4.66,0,0,1-2.41-.62,4.06,4.06,0,0,1-1.61-1.77,6,6,0,0,1-.56-2.67,5.27,5.27,0,0,1,1.21-3.69A4.4,4.4,0,0,1,58.8,115a4.28,4.28,0,0,1,3.34,1.36A5.25,5.25,0,0,1,63.37,120Zm-7.08,0q0,3.37,2.49,3.37T61.24,120q0-3.33-2.48-3.33a2.12,2.12,0,0,0-1.89.86A4.4,4.4,0,0,0,56.29,120Z"/><path class="cls-1" d="M74.29,124.89H72.22v-6a2.62,2.62,0,0,0-.45-1.68,1.75,1.75,0,0,0-1.44-.55,2.28,2.28,0,0,0-1.92.77,4.27,4.27,0,0,0-.61,2.59v4.84H65.74v-9.72h1.62l0.29,1.27h0.11A2.88,2.88,0,0,1,69,115.37,4.18,4.18,0,0,1,70.8,115q3.5,0,3.5,3.56v6.34Z"/><path class="cls-1" d="M85.72,124.89H83.65v-6a2.62,2.62,0,0,0-.45-1.68,1.75,1.75,0,0,0-1.44-.55,2.28,2.28,0,0,0-1.92.77,4.27,4.27,0,0,0-.61,2.59v4.84H77.17v-9.72h1.62l0.29,1.27h0.11a2.88,2.88,0,0,1,1.25-1.07,4.18,4.18,0,0,1,1.79-.38q3.5,0,3.5,3.56v6.34Z"/><path class="cls-1" d="M92.84,125.06a4.7,4.7,0,0,1-3.54-1.32A5,5,0,0,1,88,120.1a5.51,5.51,0,0,1,1.19-3.74A4.1,4.1,0,0,1,92.46,115a4,4,0,0,1,3,1.17,4.47,4.47,0,0,1,1.12,3.22v1.12H90.14a3.19,3.19,0,0,0,.76,2.18,2.67,2.67,0,0,0,2,.76,7.5,7.5,0,0,0,1.6-.16,8.44,8.44,0,0,0,1.6-.54v1.68a6.34,6.34,0,0,1-1.53.51A9.39,9.39,0,0,1,92.84,125.06Zm-0.38-8.51a2.08,2.08,0,0,0-1.58.62,3,3,0,0,0-.71,1.82h4.41a2.69,2.69,0,0,0-.58-1.82A2,2,0,0,0,92.46,116.56Z"/><path class="cls-1" d="M102.89,125.06a4.26,4.26,0,0,1-3.35-1.29,6.53,6.53,0,0,1,.05-7.47,4.45,4.45,0,0,1,3.47-1.32,6.5,6.5,0,0,1,2.77.57l-0.62,1.66a6.26,6.26,0,0,0-2.16-.51q-2.52,0-2.52,3.35a4,4,0,0,0,.63,2.46,2.17,2.17,0,0,0,1.84.82,5.29,5.29,0,0,0,2.61-.69v1.8a4.08,4.08,0,0,1-1.18.46A7.1,7.1,0,0,1,102.89,125.06Z"/><path class="cls-1" d="M111.5,123.39a5,5,0,0,0,1.51-.24v1.55a4.18,4.18,0,0,1-.88.25,6.1,6.1,0,0,1-1.12.1q-2.94,0-2.94-3.09v-5.24h-1.33v-0.91l1.42-.76,0.7-2.06h1.28v2.16h2.77v1.56h-2.77v5.2a1.46,1.46,0,0,0,.37,1.1A1.36,1.36,0,0,0,111.5,123.39Z"/></svg>