<svg id="Layer_1" data-name="Layer 1" xmlns="http://www.w3.org/2000/svg" viewBox="0 0 72 72"><defs><style>.cls-1{fill:#003D57;}</style></defs><title>socialMedia</title><path id="twitter-4-icon" class="cls-1" d="M36,0A36,36,0,1,0,72,36,36,36,0,0,0,36,0ZM54.11,29.8c0.53,11.74-8.23,24.84-23.73,24.84a23.63,23.63,0,0,1-12.8-3.75,16.78,16.78,0,0,0,12.36-3.46,8.36,8.36,0,0,1-7.8-5.8,8.37,8.37,0,0,0,3.77-.14,8.36,8.36,0,0,1-6.7-8.29,8.32,8.32,0,0,0,3.78,1,8.36,8.36,0,0,1-2.58-11.15,23.7,23.7,0,0,0,17.21,8.72A8.36,8.36,0,0,1,51.84,24.2a16.7,16.7,0,0,0,5.3-2,8.37,8.37,0,0,1-3.67,4.62,16.68,16.68,0,0,0,4.8-1.31A17,17,0,0,1,54.11,29.8Z"/></svg>